<?xml version="1.0" encoding="utf-8"?>
<!-- Generator: Adobe Illustrator 16.0.0, SVG Export Plug-In . SVG Version: 6.00 Build 0)  -->
<!DOCTYPE svg PUBLIC "-//W3C//DTD SVG 1.1//EN" "http://www.w3.org/Graphics/SVG/1.1/DTD/svg11.dtd" [
	<!ENTITY ns_flows "http://ns.adobe.com/Flows/1.0/">
	<!ENTITY ns_extend "http://ns.adobe.com/Extensibility/1.0/">
	<!ENTITY ns_ai "http://ns.adobe.com/AdobeIllustrator/10.0/">
	<!ENTITY ns_graphs "http://ns.adobe.com/Graphs/1.0/">
]>
<svg version="1.1" id="Layer_1" xmlns:x="&ns_extend;" xmlns:i="&ns_ai;" xmlns:graph="&ns_graphs;"
	 xmlns="http://www.w3.org/2000/svg" xmlns:xlink="http://www.w3.org/1999/xlink" xmlns:a="http://ns.adobe.com/AdobeSVGViewerExtensions/3.0/"
	 x="0px" y="0px" width="155px" height="155px" viewBox="0 0 155 155" enable-background="new 0 0 155 155" xml:space="preserve">
<g>
	<circle fill="#FFDB79" cx="77.5" cy="77.5" r="77.5"/>
	<g>
		<g>
			<g>
				<path fill="#353F49" d="M135.365,58.213c-0.745-0.768-1.748-1.141-2.757-1.141H22.395c-1,0-1.998,0.373-2.767,1.141
					c-0.759,0.762-1.139,1.758-1.139,2.764v68.109h118.02V60.977C136.509,59.971,136.14,58.975,135.365,58.213z"/>
				<g>
					<path fill="#474F59" d="M79.148,60.065c0,0.923-0.732,1.665-1.648,1.665c-0.918,0-1.658-0.742-1.658-1.665
						c0-0.91,0.74-1.646,1.658-1.646C78.416,58.42,79.148,59.155,79.148,60.065z"/>
					<path fill="#FFFFFF" d="M78.213,60.065c0,0.396-0.324,0.709-0.713,0.709c-0.388,0-0.713-0.313-0.713-0.709
						c0-0.381,0.325-0.697,0.713-0.697C77.889,59.368,78.213,59.685,78.213,60.065z"/>
				</g>
				<rect x="24.635" y="63.078" fill="#FDCA5C" width="105.742" height="66.008"/>
			</g>
			<g>
				<path fill="#CCCBCA" d="M5,131.333c5.513,2.435,11.611,3.776,18.026,3.776h108.94c6.422,0,12.517-1.342,18.033-3.776H5z"/>
				<rect x="5" y="129.086" fill="#F2F2F2" width="145" height="2.247"/>
				<rect x="64.918" y="129.086" fill="#CCCBCA" width="25.163" height="1.121"/>
			</g>
		</g>
		<g>
			<path fill-rule="evenodd" clip-rule="evenodd" fill="#F77B55" d="M55.316,18.313c0-0.829,0.326-1.67,0.959-2.307
				c0.637-0.633,1.467-0.953,2.307-0.953l37.834,0.003c0.832-0.003,1.68,0.317,2.309,0.953c0.648,0.637,0.947,1.475,0.947,2.308
				l0.001,60.019c-0.001,0.834-0.304,1.667-0.945,2.307c-0.632,0.632-1.479,0.952-2.312,0.952H58.582
				c-0.838,0-1.669-0.319-2.307-0.953c-0.634-0.639-0.953-1.474-0.959-2.306V18.313z"/>
			<g>
				<rect x="89.852" y="62.906" fill-rule="evenodd" clip-rule="evenodd" fill="#353F49" width="1.419" height="10.401"/>
				<rect x="89.852" y="49.718" fill-rule="evenodd" clip-rule="evenodd" fill="#353F49" width="1.416" height="10.403"/>
				<rect x="89.853" y="36.527" fill-rule="evenodd" clip-rule="evenodd" fill="#353F49" width="1.416" height="10.406"/>
				<rect x="89.852" y="23.344" fill-rule="evenodd" clip-rule="evenodd" fill="#353F49" width="1.419" height="10.4"/>
			</g>
			<g>
				<rect x="77.488" y="23.342" fill-rule="evenodd" clip-rule="evenodd" fill="#FFFFFF" width="5.709" height="49.966"/>
				<g>
					<rect x="79.807" y="45.855" fill-rule="evenodd" clip-rule="evenodd" fill="#353F49" width="1.063" height="2.859"/>
					<rect x="79.809" y="35.68" fill-rule="evenodd" clip-rule="evenodd" fill="#353F49" width="1.061" height="8.57"/>
					<rect x="79.812" y="25.513" fill-rule="evenodd" clip-rule="evenodd" fill="#353F49" width="1.059" height="8.569"/>
				</g>
			</g>
			<rect x="63.386" y="15.053" fill-rule="evenodd" clip-rule="evenodd" fill="#353F49" width="10.153" height="66.541"/>
		</g>
		<g>
			<rect x="39.475" y="45.899" fill="#FFFFFF" width="76.051" height="83.187"/>
			<g>
				<path fill="#353F49" d="M94.775,55.928c0,1.614,1.311,2.926,2.912,2.926c1.631,0,2.953-1.312,2.953-2.926
					c0-1.625-1.322-2.932-2.953-2.932C96.086,52.996,94.775,54.303,94.775,55.928z"/>
				<path fill="#353F49" d="M54.369,55.928c0,1.614,1.31,2.926,2.926,2.926c1.613,0,2.93-1.312,2.93-2.926
					c0-1.625-1.316-2.932-2.93-2.932C55.679,52.996,54.369,54.303,54.369,55.928z"/>
				<path fill="#CCCBCA" d="M77.5,85.874c-5.623,0-10.903-2.192-14.879-6.163c-3.976-3.977-6.163-9.26-6.163-14.879v-8.906
					c0-0.462,0.378-0.838,0.837-0.838c0.466,0,0.842,0.376,0.842,0.838v8.906c0,5.173,2.01,10.033,5.666,13.693
					c3.664,3.66,8.523,5.674,13.697,5.674c5.17,0,10.034-2.014,13.689-5.674c3.664-3.66,5.673-8.521,5.673-13.693v-8.906
					c0-0.462,0.384-0.838,0.836-0.838c0.467,0,0.837,0.376,0.837,0.838v8.906c0,5.617-2.183,10.902-6.156,14.879
					C88.404,83.682,83.115,85.874,77.5,85.874z"/>
			</g>
			<g>
				<circle fill="#D9D8D7" cx="77.536" cy="105.162" r="4.566"/>
				<g>
					<g>
						<polygon fill="#353F49" points="85.219,124.21 77.534,105.162 96.575,112.851 89.168,116.791 						"/>
						
							<rect x="90.071" y="114.73" transform="matrix(0.7069 -0.7073 0.7073 0.7069 -57.4784 99.7123)" fill="#353F49" width="3.028" height="8.973"/>
					</g>
				</g>
				<g>
					<g>
						
							<rect x="66.469" y="96.426" transform="matrix(0.7069 0.7074 -0.7074 0.7069 89.0283 -20.6666)" fill="#353F49" width="5.96" height="1.309"/>
						
							<rect x="63.988" y="100.134" transform="matrix(0.9241 0.3821 -0.3821 0.9241 43.5986 -17.9432)" fill="#353F49" width="5.964" height="1.306"/>
						<rect x="63.116" y="104.507" fill="#353F49" width="5.966" height="1.312"/>
						
							<rect x="66.317" y="106.553" transform="matrix(0.3829 0.9238 -0.9238 0.3829 142.5165 5.7255)" fill="#353F49" width="1.311" height="5.969"/>
						
							<rect x="68.793" y="110.261" transform="matrix(0.7071 0.7071 -0.7071 0.7071 100.4162 -15.9398)" fill="#353F49" width="1.312" height="5.965"/>
						
							<rect x="72.504" y="112.733" transform="matrix(0.9243 0.3816 -0.3816 0.9243 49.7022 -19.162)" fill="#353F49" width="1.31" height="5.975"/>
						<rect x="76.88" y="113.609" fill="#353F49" width="1.307" height="5.965"/>
						<rect x="85.974" y="104.504" fill="#353F49" width="5.97" height="1.313"/>
						<polygon fill="#353F49" points="85.59,102.529 85.083,101.319 90.605,99.041 91.102,100.249 						"/>
						
							<rect x="84.96" y="94.098" transform="matrix(0.706 0.7082 -0.7082 0.706 93.926 -32.0911)" fill="#353F49" width="1.307" height="5.963"/>
						
							<rect x="81.25" y="91.618" transform="matrix(0.9246 0.381 -0.381 0.9246 42.2179 -24.0702)" fill="#353F49" width="1.315" height="5.969"/>
						<rect x="76.879" y="90.748" fill="#353F49" width="1.307" height="5.962"/>
						
							<rect x="70.175" y="93.947" transform="matrix(0.3826 0.9239 -0.9239 0.3826 132.5757 -9.1818)" fill="#353F49" width="5.966" height="1.311"/>
					</g>
				</g>
			</g>
		</g>
	</g>
</g>
</svg>
