<svg xmlns="http://www.w3.org/2000/svg" xmlns:xlink="http://www.w3.org/1999/xlink" id="Layer_1" width="155" height="155" x="0" y="0" enable-background="new 0 0 155 155" version="1.1" viewBox="0 0 155 155" xml:space="preserve"><g><circle cx="77.5" cy="77.5" r="77.5" fill="#474F59"/><g><g><path fill="#FFF" d="M18.171,111.752c-0.421-0.723-0.624-1.571-0.623-2.508h1.361c-0.001,0.7,0.15,1.316,0.438,1.828 L18.171,111.752z"/><path fill="#FFF" d="M20.055,105.243l-1.217-0.604c0.614-1.212,1.438-2.53,2.445-3.921l1.102,0.8 C21.404,102.848,20.628,104.1,20.055,105.243z M25.182,98.063l-1.018-0.902c0.941-1.062,1.987-2.178,3.107-3.316l0.966,0.95 C27.118,95.92,26.096,97.012,25.182,98.063z M31.473,91.69l-0.916-0.995c1.058-0.985,2.186-1.992,3.38-3.018l0.893,1.027 C33.655,89.713,32.516,90.717,31.473,91.69z M38.272,85.827l-0.857-1.062c1.151-0.927,2.331-1.865,3.562-2.811l0.831,1.076 C40.592,83.968,39.416,84.896,38.272,85.827z M45.398,80.326l-0.804-1.096c1.19-0.88,2.418-1.764,3.657-2.645l0.797,1.103 C47.802,78.574,46.58,79.454,45.398,80.326z M52.748,75.127l-0.758-1.123c1.216-0.831,2.479-1.673,3.75-2.504l0.754,1.136 C55.211,73.46,53.976,74.299,52.748,75.127z M60.285,70.197l-0.73-1.148c1.268-0.796,2.546-1.589,3.842-2.38l0.711,1.163 C62.818,68.618,61.529,69.406,60.285,70.197z M67.969,65.514l-0.69-1.162c0.646-0.389,1.304-0.767,1.974-1.141 c0.651-0.386,1.305-0.754,1.954-1.129l0.668,1.187c-0.645,0.362-1.293,0.739-1.954,1.112 C69.259,64.756,68.611,65.141,67.969,65.514z M75.807,61.079l-0.66-1.198c1.337-0.729,2.673-1.439,4.004-2.139l0.627,1.199 C78.466,59.637,77.145,60.343,75.807,61.079z M83.775,56.879l-0.605-1.213c1.35-0.681,2.705-1.352,4.045-2.007l0.601,1.224 C86.482,55.525,85.138,56.193,83.775,56.879z M91.869,52.965l-0.55-1.237c1.38-0.639,2.765-1.261,4.128-1.854l0.543,1.238 C94.639,51.712,93.264,52.318,91.869,52.965z M100.131,49.362l-0.515-1.261c1.425-0.588,2.822-1.141,4.198-1.673l0.494,1.271 C102.943,48.225,101.539,48.771,100.131,49.362z M108.522,46.155l-0.456-1.28c1.468-0.52,2.932-0.993,4.311-1.432l0.404,1.299 C111.402,45.165,109.972,45.641,108.522,46.155z M117.095,43.49l-0.349-1.307c1.547-0.41,3.042-0.762,4.424-1.039l0.269,1.334 C120.085,42.75,118.619,43.09,117.095,43.49z M125.844,41.778l-0.138-1.351c1.715-0.184,3.253-0.234,4.606-0.156l-0.072,1.354 C128.943,41.547,127.478,41.604,125.844,41.778z"/><path fill="#FFF" d="M135.641,43.932c-0.292-0.515-0.747-0.957-1.359-1.304l0.675-1.171c0.815,0.467,1.454,1.071,1.858,1.796 L135.641,43.932z"/></g><g><path fill="#FFF" d="M134.951,113.548l-0.671-1.17c0.609-0.348,1.067-0.791,1.355-1.304l1.179,0.68 C136.406,112.477,135.768,113.082,134.951,113.548z"/><path fill="#FFF" d="M129.019,114.766c-1.028,0-2.128-0.066-3.306-0.191l0.131-1.352c1.63,0.172,3.107,0.232,4.404,0.152 l0.073,1.354C129.898,114.749,129.464,114.766,129.019,114.766z M121.179,113.857c-1.372-0.276-2.864-0.629-4.431-1.041 l0.355-1.307c1.52,0.403,2.993,0.742,4.344,1.011L121.179,113.857z M112.387,111.559c-1.386-0.435-2.836-0.912-4.31-1.432 l0.456-1.282c1.456,0.52,2.884,0.996,4.257,1.415L112.387,111.559z M103.825,108.574c-1.383-0.533-2.773-1.086-4.204-1.674 l0.519-1.26c1.409,0.59,2.814,1.139,4.17,1.66L103.825,108.574z M95.455,105.129c-1.359-0.59-2.746-1.213-4.129-1.852 l0.555-1.237c1.395,0.646,2.768,1.253,4.119,1.851L95.455,105.129z M87.224,101.345c-1.34-0.655-2.692-1.325-4.053-2.007 l0.615-1.212c1.358,0.682,2.706,1.351,4.038,1.995L87.224,101.345z M79.156,97.262c-1.334-0.698-2.665-1.408-3.999-2.137 l0.651-1.2c1.336,0.735,2.667,1.442,3.98,2.138L79.156,97.262z M71.215,92.921c-0.652-0.373-1.308-0.745-1.963-1.132 c-0.668-0.374-1.318-0.749-1.961-1.135l0.688-1.162c0.638,0.37,1.282,0.753,1.94,1.127c0.664,0.373,1.314,0.754,1.966,1.119 L71.215,92.921z M63.405,88.336c-1.292-0.789-2.583-1.583-3.839-2.379l0.721-1.147c1.255,0.791,2.543,1.579,3.833,2.364 L63.405,88.336z M55.75,83.506c-1.269-0.83-2.532-1.673-3.758-2.504l0.769-1.127c1.225,0.834,2.461,1.67,3.744,2.496 L55.75,83.506z M48.266,78.418c-1.242-0.883-2.468-1.762-3.658-2.641l0.803-1.098c1.183,0.873,2.403,1.755,3.639,2.638 L48.266,78.418z M40.989,73.051c-1.229-0.943-2.409-1.881-3.568-2.811l0.864-1.059c1.131,0.926,2.318,1.859,3.535,2.797 L40.989,73.051z M33.94,67.332c-1.179-1.02-2.308-2.036-3.375-3.018l0.919-0.996c1.053,0.972,2.184,1.976,3.355,2.982 L33.94,67.332z M27.28,61.164c-1.112-1.135-2.174-2.248-3.116-3.315l1.027-0.901c0.92,1.055,1.942,2.146,3.057,3.261 L27.28,61.164z M21.291,54.293c-1.01-1.391-1.834-2.713-2.448-3.919l1.215-0.606c0.575,1.144,1.354,2.396,2.335,3.726 L21.291,54.293z"/><path fill="#FFF" d="M17.546,45.758c-0.004-0.936,0.2-1.778,0.62-2.502l1.182,0.679c-0.291,0.513-0.444,1.128-0.44,1.823 H17.546z"/></g><path fill="#FFF" d="M77.494,146.001v-1.358c7.309,0,15.153-26.975,15.154-67.143c0-40.168-7.844-67.14-15.154-67.14V9.001 c9.26,0,16.508,30.086,16.508,68.499C94.002,115.914,86.754,146.001,77.494,146.001z"/><g><path fill="#FFDB79" d="M106.57,77.512c0,16.046-13.014,29.057-29.071,29.057c-16.059,0-29.074-13.011-29.074-29.057 c0-16.043,13.016-29.078,29.074-29.078C93.557,48.434,106.57,61.469,106.57,77.512z"/><path fill="#FAB83E" d="M100.729,77.512c0,12.851-10.385,23.234-23.23,23.234c-12.848,0-23.24-10.384-23.24-23.234 c0-12.848,10.393-23.256,23.24-23.256C90.345,54.256,100.729,64.664,100.729,77.512z"/><g><g><path fill="#FFDB79" d="M79.942,79.426h-4.89c-2.039,0-3.949-0.799-5.383-2.243c-1.432-1.403-2.235-3.324-2.235-5.376 c0-2.038,0.804-3.955,2.235-5.395c1.42-1.415,3.333-2.212,5.383-2.212h10.563v3.837H75.053c-1.009,0-1.973,0.397-2.653,1.083 c-0.734,0.721-1.134,1.667-1.134,2.687c0,1.017,0.399,1.961,1.111,2.656c0.738,0.733,1.667,1.129,2.676,1.129h4.89V79.426z"/><path fill="#FFDB79" d="M79.942,90.818H69.371v-3.834h10.571c0.999,0,1.936-0.398,2.675-1.107 c0.682-0.693,1.096-1.652,1.096-2.668c0-1.02-0.391-1.959-1.084-2.653c-0.751-0.735-1.688-1.13-2.687-1.13h-4.89v-3.834h4.89 c2.019,0,3.943,0.803,5.373,2.237c1.441,1.402,2.236,3.328,2.236,5.38c0,2.039-0.79,3.96-2.236,5.389 C83.859,90.029,81.954,90.818,79.942,90.818z"/><rect width="3.848" height="29.277" x="75.576" y="62.879" fill="#FFDB79"/></g></g></g><g><path fill="#FFF" d="M77.494,146.001c-0.845,0-1.684-0.233-2.49-0.704l0.677-1.181c0.612,0.351,1.208,0.526,1.813,0.526 V146.001z"/><path fill="#FFF" d="M71.667,141.865c-0.745-1.13-1.479-2.507-2.165-4.078l1.227-0.549c0.669,1.504,1.362,2.81,2.075,3.874 L71.667,141.865z M67.856,133.521c-0.462-1.342-0.89-2.811-1.313-4.361l1.304-0.359c0.417,1.523,0.856,2.969,1.286,4.281 L67.856,133.521z M65.449,124.752c-0.328-1.419-0.622-2.919-0.913-4.449l1.331-0.248c0.289,1.512,0.58,2.992,0.902,4.393 L65.449,124.752z M63.763,115.841c-0.248-1.452-0.46-2.952-0.661-4.48l1.339-0.181c0.207,1.521,0.416,3.006,0.661,4.444 L63.763,115.841z M62.552,106.861c-0.17-1.473-0.326-2.97-0.468-4.508l1.354-0.121c0.141,1.525,0.297,3.013,0.463,4.475 L62.552,106.861z M61.72,97.852c-0.104-1.486-0.217-2.992-0.296-4.521l1.359-0.076c0.076,1.525,0.18,3.017,0.291,4.493 L61.72,97.852z M61.221,88.814c-0.067-1.497-0.123-3-0.142-4.525l1.349-0.031c0.03,1.513,0.084,3.018,0.14,4.506L61.221,88.814z M60.994,79.764c-0.004-0.755-0.008-1.504-0.006-2.266c0-0.756,0.002-1.504,0.007-2.252l1.361,0.012 c-0.007,0.738-0.011,1.488-0.011,2.242c-0.001,0.758,0.003,1.507,0.01,2.254L60.994,79.764z M62.428,70.752l-1.351-0.037 c0.021-1.521,0.073-3.023,0.143-4.517l1.348,0.05C62.509,67.736,62.457,69.24,62.428,70.752z M62.782,61.749l-1.359-0.071 c0.078-1.529,0.189-3.03,0.296-4.518l1.354,0.104C62.963,58.734,62.857,60.233,62.782,61.749z M63.438,52.779l-1.354-0.129 c0.144-1.533,0.3-3.028,0.468-4.5l1.349,0.148C63.735,49.765,63.579,51.252,63.438,52.779z M64.44,43.83l-1.339-0.179 c0.2-1.531,0.411-3.03,0.66-4.481l1.34,0.215C64.855,40.824,64.646,42.312,64.44,43.83z M65.865,34.955l-1.331-0.249 c0.289-1.524,0.582-3.016,0.912-4.449l1.319,0.303C66.443,31.976,66.151,33.449,65.865,34.955z M67.846,26.208l-1.304-0.36 c0.422-1.547,0.85-3.014,1.313-4.359l1.275,0.438C68.7,23.244,68.26,24.688,67.846,26.208z M70.727,17.771l-1.229-0.552 c0.689-1.573,1.421-2.951,2.167-4.076l1.133,0.753C72.089,14.957,71.397,16.26,70.727,17.771z"/><path fill="#FFF" d="M75.681,10.887l-0.677-1.181c0.807-0.471,1.645-0.705,2.49-0.705v1.359 C76.888,10.36,76.292,10.533,75.681,10.887z"/></g><path fill="#FFF" d="M136.814,111.754l-1.179-0.68c3.665-6.333-15.791-26.608-50.569-46.693 C50.283,44.299,23,37.596,19.348,43.935l-1.182-0.681c4.64-8.012,34.32,0.752,67.576,19.957 C119.021,82.416,141.445,103.74,136.814,111.754z"/><path fill="#FFF" d="M25.954,114.784c-3.616,0-6.499-0.825-7.783-3.032l1.177-0.68c1.91,3.316,9.932,3.115,22.01-0.555 c12.534-3.801,28.06-10.863,43.709-19.898c34.778-20.082,54.236-40.355,50.574-46.688l1.174-0.679 c4.632,8.013-17.795,29.332-51.072,48.536c-15.725,9.09-31.347,16.198-43.993,20.031C36.591,113.391,30.66,114.784,25.954,114.784 z"/></g></g></svg>