<?xml version="1.0" encoding="utf-8"?>
<!-- Generator: Adobe Illustrator 16.0.0, SVG Export Plug-In . SVG Version: 6.00 Build 0)  -->
<!DOCTYPE svg PUBLIC "-//W3C//DTD SVG 1.1//EN" "http://www.w3.org/Graphics/SVG/1.1/DTD/svg11.dtd" [
	<!ENTITY ns_flows "http://ns.adobe.com/Flows/1.0/">
	<!ENTITY ns_extend "http://ns.adobe.com/Extensibility/1.0/">
	<!ENTITY ns_ai "http://ns.adobe.com/AdobeIllustrator/10.0/">
	<!ENTITY ns_graphs "http://ns.adobe.com/Graphs/1.0/">
]>
<svg version="1.1" id="Layer_1" xmlns:x="&ns_extend;" xmlns:i="&ns_ai;" xmlns:graph="&ns_graphs;"
	 xmlns="http://www.w3.org/2000/svg" xmlns:xlink="http://www.w3.org/1999/xlink" xmlns:a="http://ns.adobe.com/AdobeSVGViewerExtensions/3.0/"
	 x="0px" y="0px" width="155px" height="155px" viewBox="0 0 155 155" enable-background="new 0 0 155 155" xml:space="preserve">
<g>
	<circle fill="#474F59" cx="77.5" cy="77.5" r="77.5"/>
	<g>
		<g>
			<g>
				<rect x="75.805" y="83.196" fill="#FFFFFF" width="3.387" height="6.28"/>
				<g>
					<rect x="76.092" y="18.258" fill="#CCCBCA" width="2.804" height="3.375"/>
					<rect x="75.252" y="21.633" fill="#FFFFFF" width="4.493" height="7.861"/>
				</g>
				<path fill="#FFFFFF" d="M78.277,83.196h-1.565v-4.474c0-0.99-0.38-1.918-1.077-2.612c-0.698-0.698-1.627-1.083-2.609-1.083
					H20.257c-1.4,0-2.719-0.545-3.717-1.536c-0.993-0.997-1.541-2.317-1.541-3.721c0-1.404,0.548-2.725,1.54-3.718
					c0.999-0.99,2.318-1.537,3.718-1.537h98.68c0.983,0,1.912-0.384,2.609-1.082c0.698-0.698,1.084-1.627,1.084-2.614
					s-0.386-1.913-1.083-2.608c-0.697-0.7-1.625-1.083-2.61-1.083H44.664c-1.409,0-2.729-0.547-3.718-1.54
					c-0.992-0.994-1.542-2.314-1.542-3.718c0-1.405,0.552-2.727,1.544-3.718c0.984-0.99,2.307-1.537,3.716-1.537h52.734
					c0.988,0,1.914-0.385,2.609-1.08c0.699-0.701,1.085-1.629,1.085-2.617c0-0.985-0.385-1.913-1.082-2.608
					c-0.695-0.698-1.621-1.083-2.612-1.083H81.972c-1.398,0-2.718-0.546-3.714-1.538c-0.997-0.997-1.546-2.317-1.546-3.72v-4.475
					h1.565v4.475c0,0.984,0.383,1.914,1.084,2.613c0.699,0.697,1.627,1.082,2.61,1.082h15.427c1.409,0,2.732,0.548,3.718,1.541
					c0.99,0.988,1.539,2.308,1.539,3.713c0,1.404-0.549,2.727-1.542,3.72c-0.987,0.992-2.309,1.539-3.715,1.539H44.664
					c-0.991,0-1.917,0.384-2.61,1.081c-0.701,0.697-1.086,1.625-1.086,2.612c0,0.985,0.385,1.913,1.084,2.614
					c0.698,0.697,1.622,1.08,2.612,1.08h74.272c1.404,0,2.723,0.547,3.715,1.541c0.993,0.989,1.542,2.309,1.542,3.714
					c0,1.403-0.548,2.725-1.543,3.72c-0.992,0.992-2.312,1.539-3.714,1.539h-98.68c-0.982,0-1.911,0.385-2.614,1.083
					c-0.696,0.696-1.081,1.623-1.081,2.609c0,0.985,0.385,1.914,1.083,2.616c0.701,0.694,1.629,1.079,2.612,1.079h52.769
					c1.397,0,2.716,0.546,3.714,1.538c0.991,0.992,1.538,2.313,1.538,3.719V83.196z"/>
			</g>
			<g>
				<rect x="14.999" y="89.477" fill="#CCCBCA" width="125" height="48.224"/>
				<g>
					<rect x="19.107" y="93.604" fill="#FFFFFF" width="6.235" height="6.214"/>
					<rect x="121.474" y="101.786" fill="#FFFFFF" width="6.232" height="6.215"/>
					<rect x="113.296" y="101.786" fill="#FFFFFF" width="6.223" height="6.215"/>
					<rect x="105.106" y="101.786" fill="#FFFFFF" width="6.216" height="6.215"/>
					<rect x="96.907" y="101.786" fill="#FFFFFF" width="6.235" height="6.215"/>
					<rect x="88.726" y="101.786" fill="#FFFFFF" width="6.223" height="6.215"/>
					<rect x="80.536" y="101.786" fill="#FFFFFF" width="6.225" height="6.215"/>
					<rect x="72.345" y="101.786" fill="#FFFFFF" width="6.233" height="6.215"/>
					<rect x="64.15" y="101.786" fill="#FFFFFF" width="6.236" height="6.215"/>
					<rect x="55.969" y="101.786" fill="#FFFFFF" width="6.223" height="6.215"/>
					<rect x="47.777" y="101.786" fill="#FFFFFF" width="6.229" height="6.215"/>
					<rect x="39.587" y="101.786" fill="#FFFFFF" width="6.237" height="6.215"/>
					<rect x="31.407" y="101.786" fill="#FFFFFF" width="6.226" height="6.215"/>
					<rect x="33.373" y="109.957" fill="#FFFFFF" width="6.221" height="6.226"/>
					<rect x="29.371" y="118.157" fill="#FFFFFF" width="6.224" height="6.22"/>
					<rect x="37.551" y="118.157" fill="#FFFFFF" width="6.236" height="6.22"/>
					<rect x="45.744" y="118.157" fill="#FFFFFF" width="6.22" height="6.22"/>
					<rect x="53.936" y="118.157" fill="#FFFFFF" width="6.22" height="6.22"/>
					<rect x="62.111" y="118.157" fill="#FFFFFF" width="6.235" height="6.22"/>
					<rect x="70.307" y="118.157" fill="#FFFFFF" width="6.218" height="6.22"/>
					<rect x="78.497" y="118.157" fill="#FFFFFF" width="6.217" height="6.22"/>
					<rect x="86.673" y="118.157" fill="#FFFFFF" width="6.235" height="6.22"/>
					<rect x="94.868" y="118.157" fill="#FFFFFF" width="6.231" height="6.22"/>
					<rect x="103.06" y="118.157" fill="#FFFFFF" width="6.226" height="6.22"/>
					<rect x="111.239" y="118.157" fill="#FFFFFF" width="6.232" height="6.22"/>
					<rect x="119.417" y="118.157" fill="#FFFFFF" width="16.469" height="6.22"/>
					<rect x="41.565" y="109.957" fill="#FFFFFF" width="6.219" height="6.226"/>
					<rect x="49.745" y="109.957" fill="#FFFFFF" width="6.234" height="6.226"/>
					<rect x="57.936" y="109.957" fill="#FFFFFF" width="6.215" height="6.226"/>
					<rect x="66.121" y="109.957" fill="#FFFFFF" width="6.228" height="6.226"/>
					<rect x="74.3" y="109.957" fill="#FFFFFF" width="6.236" height="6.226"/>
					<rect x="82.49" y="109.957" fill="#FFFFFF" width="6.226" height="6.226"/>
					<rect x="90.68" y="109.957" fill="#FFFFFF" width="6.226" height="6.226"/>
					<rect x="98.863" y="109.957" fill="#FFFFFF" width="6.233" height="6.226"/>
					<rect x="107.052" y="109.957" fill="#FFFFFF" width="6.236" height="6.226"/>
					<rect x="115.243" y="109.957" fill="#FFFFFF" width="6.22" height="6.226"/>
					<rect x="123.424" y="109.957" fill="#FFFFFF" width="6.229" height="6.226"/>
					<rect x="27.303" y="93.604" fill="#FFFFFF" width="6.229" height="6.214"/>
					<rect x="35.493" y="93.604" fill="#FFFFFF" width="6.221" height="6.214"/>
					<rect x="43.688" y="93.604" fill="#FFFFFF" width="6.218" height="6.214"/>
					<rect x="51.859" y="93.604" fill="#FFFFFF" width="6.236" height="6.214"/>
					<rect x="60.057" y="93.604" fill="#FFFFFF" width="6.219" height="6.214"/>
					<rect x="68.252" y="93.604" fill="#FFFFFF" width="6.213" height="6.214"/>
					<rect x="76.43" y="93.604" fill="#FFFFFF" width="6.229" height="6.214"/>
					<rect x="84.62" y="93.604" fill="#FFFFFF" width="6.229" height="6.214"/>
					<rect x="92.811" y="93.604" fill="#FFFFFF" width="6.222" height="6.214"/>
					<rect x="100.988" y="93.604" fill="#FFFFFF" width="6.234" height="6.214"/>
					<rect x="109.182" y="93.604" fill="#FFFFFF" width="6.227" height="6.214"/>
					<rect x="117.371" y="93.604" fill="#FFFFFF" width="6.22" height="6.214"/>
					<rect x="125.549" y="93.604" fill="#FFFFFF" width="10.331" height="6.214"/>
					<rect x="19.107" y="101.781" fill="#FFFFFF" width="10.332" height="6.215"/>
					<rect x="19.107" y="109.957" fill="#FFFFFF" width="12.313" height="6.226"/>
					<rect x="19.107" y="118.157" fill="#FFFFFF" width="8.3" height="6.22"/>
					<rect x="19.107" y="126.337" fill="#FFFFFF" width="6.237" height="7.257"/>
					<rect x="27.28" y="126.337" fill="#FFFFFF" width="6.222" height="7.257"/>
					<rect x="35.438" y="126.337" fill="#FFFFFF" width="6.235" height="7.257"/>
					<rect x="43.604" y="126.337" fill="#FFFFFF" width="8.355" height="7.257"/>
					<rect x="53.93" y="126.337" fill="#FFFFFF" width="38.979" height="7.257"/>
					<rect x="94.864" y="126.337" fill="#FFFFFF" width="8.364" height="7.257"/>
					<rect x="105.17" y="126.337" fill="#FFFFFF" width="6.224" height="7.257"/>
					<rect x="113.35" y="130.21" fill="#FFFFFF" width="6.232" height="3.384"/>
					<rect x="121.508" y="130.412" fill="#FFFFFF" width="6.225" height="3.182"/>
					<rect x="121.508" y="126.318" fill="#FFFFFF" width="6.225" height="3.188"/>
					<rect x="129.663" y="130.21" fill="#FFFFFF" width="6.221" height="3.384"/>
					<polygon fill="#FFFFFF" points="131.607,116.183 131.607,108.001 129.666,108.001 129.666,101.786 135.886,101.786 
						135.886,116.183 					"/>
				</g>
			</g>
		</g>
		<g>
			<path fill="#FFFFFF" d="M123.971,45.655c-0.743,0-1.442-0.292-1.97-0.821c-0.528-0.527-0.818-1.228-0.818-1.972v-2.969
				c0-0.743,0.29-1.444,0.818-1.976c1.06-1.059,2.896-1.052,3.947-0.002c0.529,0.531,0.819,1.232,0.819,1.978v2.969
				c0,0.745-0.292,1.446-0.821,1.974C125.422,45.363,124.72,45.655,123.971,45.655z M123.971,38.525c-0.361,0-0.702,0.142-0.961,0.4
				c-0.259,0.26-0.402,0.604-0.402,0.968v2.969c0,0.362,0.143,0.706,0.402,0.964c0.522,0.527,1.419,0.517,1.929,0.002
				c0.262-0.26,0.404-0.602,0.404-0.966v-2.969c0-0.364-0.145-0.708-0.404-0.97C124.682,38.667,124.338,38.525,123.971,38.525z"/>
			<path fill="#FFFFFF" d="M131.695,45.655c-0.74,0-1.441-0.29-1.973-0.817c-0.527-0.526-0.815-1.227-0.815-1.976v-2.969
				c0-0.747,0.288-1.448,0.812-1.976c1.072-1.059,2.913-1.042,3.954-0.001c0.528,0.532,0.819,1.234,0.819,1.977v2.969
				c0,0.743-0.292,1.444-0.821,1.974C133.155,45.355,132.434,45.655,131.695,45.655z M131.695,38.525
				c-0.362,0-0.707,0.144-0.971,0.403c-0.251,0.253-0.393,0.597-0.393,0.965v2.969c0,0.367,0.141,0.71,0.396,0.964
				c0.522,0.518,1.427,0.513,1.934,0.003c0.262-0.263,0.405-0.604,0.405-0.967v-2.969c0-0.362-0.144-0.708-0.404-0.97
				C132.409,38.671,132.057,38.525,131.695,38.525z"/>
		</g>
		<g>
			<path fill="#FFFFFF" d="M14.074,55.941c-0.744,0-1.443-0.289-1.97-0.817c-0.526-0.523-0.819-1.225-0.819-1.972V50.18
				c0-0.747,0.293-1.448,0.822-1.975c0.524-0.526,1.224-0.818,1.967-0.818l0,0c0.744,0,1.445,0.291,1.977,0.819
				c0.527,0.528,0.818,1.229,0.818,1.974v2.973c0,0.732-0.297,1.451-0.816,1.973C15.521,55.652,14.819,55.941,14.074,55.941z
				 M14.074,48.813c-0.361,0-0.702,0.143-0.959,0.402c-0.262,0.259-0.404,0.601-0.404,0.965v2.973c0,0.364,0.143,0.706,0.401,0.963
				c0.52,0.521,1.415,0.516,1.933,0c0.253-0.253,0.398-0.604,0.398-0.963V50.18c0-0.363-0.143-0.706-0.4-0.965
				C14.783,48.957,14.439,48.813,14.074,48.813z"/>
			<path fill="#FFFFFF" d="M21.799,55.941c-0.743,0-1.442-0.289-1.971-0.815c-0.525-0.517-0.818-1.219-0.818-1.974V50.18
				c0-0.755,0.293-1.457,0.822-1.979c1.054-1.05,2.89-1.049,3.943,0.006c0.526,0.526,0.818,1.227,0.818,1.973v2.973
				c0,0.734-0.299,1.454-0.821,1.974C23.246,55.652,22.545,55.941,21.799,55.941z M21.799,48.813c-0.361,0-0.703,0.144-0.963,0.402
				c-0.261,0.256-0.401,0.597-0.401,0.965v2.973c0,0.369,0.141,0.709,0.397,0.959c0.529,0.527,1.422,0.518,1.934,0.006
				c0.256-0.256,0.402-0.606,0.402-0.965V50.18c0-0.363-0.143-0.705-0.4-0.964C22.506,48.956,22.162,48.813,21.799,48.813z"/>
			<g>
				<path fill="#FFFFFF" d="M26.731,50.178v-1.425c0.364,0,0.705-0.141,0.96-0.396c0.262-0.261,0.404-0.603,0.404-0.97h1.426
					c0,0.75-0.291,1.452-0.823,1.979C28.178,49.889,27.479,50.178,26.731,50.178z"/>
				<rect x="28.096" y="47.387" fill="#FFFFFF" width="1.426" height="8.555"/>
			</g>
		</g>
		<g>
			<path fill="#FFFFFF" d="M103.262,84.209c-0.746,0-1.449-0.291-1.978-0.82c-0.529-0.525-0.82-1.226-0.82-1.971v-2.971
				c0-0.744,0.29-1.445,0.819-1.977c1.042-1.047,2.884-1.061,3.947-0.001c0.528,0.53,0.818,1.231,0.818,1.978v2.971
				c0,0.746-0.29,1.446-0.819,1.973C104.696,83.918,103.998,84.209,103.262,84.209z M103.262,77.079
				c-0.369,0-0.712,0.142-0.969,0.398c-0.261,0.262-0.404,0.606-0.404,0.97v2.971c0,0.363,0.143,0.704,0.402,0.963
				c0.518,0.516,1.402,0.525,1.934-0.002c0.257-0.255,0.399-0.598,0.399-0.961v-2.971c0-0.365-0.143-0.709-0.402-0.969
				C103.964,77.222,103.623,77.079,103.262,77.079z"/>
			<g>
				<path fill="#FFFFFF" d="M108.188,78.445V77.02c0.368,0,0.711-0.141,0.963-0.397c0.261-0.26,0.402-0.602,0.402-0.968h1.426
					c0,0.748-0.29,1.449-0.815,1.973C109.645,78.154,108.94,78.445,108.188,78.445z"/>
				<rect x="109.553" y="75.654" fill="#FFFFFF" width="1.426" height="8.555"/>
			</g>
			<g>
				<path fill="#FFFFFF" d="M95.534,78.445V77.02c0.365,0,0.71-0.143,0.971-0.402c0.254-0.254,0.395-0.596,0.395-0.963h1.425
					c0,0.748-0.288,1.447-0.813,1.973C96.98,78.155,96.279,78.445,95.534,78.445z"/>
				<rect x="96.899" y="75.654" fill="#FFFFFF" width="1.425" height="8.555"/>
			</g>
		</g>
		<g>
			<path fill="#FFFFFF" d="M67.268,10.346c-2.473,0-4.47,2.008-4.47,4.474c0-2.466-2-4.474-4.472-4.474
				c2.472,0,4.472-2.008,4.472-4.471C62.798,8.338,64.795,10.346,67.268,10.346z"/>
			<path fill="#FFFFFF" d="M94.552,30.906c-1.289,0-2.339,1.047-2.339,2.336c0-1.289-1.046-2.336-2.332-2.336
				c1.286,0,2.332-1.052,2.332-2.338C92.213,29.854,93.263,30.906,94.552,30.906z"/>
			<path fill="#FFFFFF" d="M104.197,15.92c-1.29,0-2.339,1.051-2.339,2.338c0-1.287-1.042-2.338-2.332-2.338
				c1.29,0,2.332-1.05,2.332-2.337C101.858,14.87,102.907,15.92,104.197,15.92z"/>
		</g>
		<g>
			<rect x="19.933" y="15.176" fill="#F77B55" width="31.347" height="16.654"/>
			<g>
				<path fill="#FFFFFF" d="M27.93,19.228l-3.276,8.412h1.8l0.7-1.911h3.36l0.736,1.911h1.848l-3.367-8.412H27.93z M27.673,24.312
					l1.136-3.121l1.162,3.121H27.673z"/>
				<path fill="#FFFFFF" d="M37.296,21.408c-0.68,0-1.271,0.283-1.764,0.85v-3.03h-1.615v8.412h1.503v-0.894
					c0.242,0.34,0.533,0.6,0.871,0.771c0.338,0.176,0.684,0.262,1.027,0.262c0.709,0,1.313-0.283,1.812-0.845
					c0.491-0.562,0.737-1.365,0.737-2.405c0-1.006-0.241-1.777-0.728-2.313C38.654,21.678,38.041,21.408,37.296,21.408z
					 M37.844,26.05c-0.256,0.304-0.561,0.454-0.912,0.454c-0.466,0-0.834-0.215-1.113-0.644c-0.201-0.299-0.299-0.768-0.299-1.399
					c0-0.61,0.127-1.068,0.383-1.369c0.254-0.3,0.578-0.448,0.963-0.448c0.398,0,0.717,0.151,0.975,0.46
					c0.252,0.31,0.377,0.813,0.377,1.508C38.217,25.266,38.092,25.744,37.844,26.05z"/>
				<path fill="#FFFFFF" d="M44.979,25.305c-0.081,0.424-0.219,0.725-0.417,0.9c-0.19,0.172-0.44,0.26-0.747,0.26
					c-0.407,0-0.736-0.149-0.978-0.449c-0.246-0.299-0.368-0.807-0.368-1.529c0-0.652,0.119-1.117,0.363-1.395
					c0.236-0.277,0.559-0.416,0.959-0.416c0.303,0,0.547,0.082,0.74,0.242c0.184,0.16,0.311,0.398,0.359,0.719l1.592-0.287
					c-0.195-0.655-0.503-1.142-0.941-1.463c-0.439-0.318-1.03-0.479-1.772-0.479c-0.911,0-1.632,0.279-2.161,0.84
					s-0.793,1.344-0.793,2.352c0,0.994,0.262,1.773,0.791,2.335c0.526,0.562,1.24,0.845,2.132,0.845
					c0.788,0,1.409-0.186,1.878-0.559c0.468-0.369,0.786-0.92,0.944-1.646L44.979,25.305z"/>
			</g>
		</g>
		<g>
			<path fill="#92DEEB" d="M150.66,72.245c0,6.074-4.924,11.003-11.004,11.003c-6.071,0-10.996-4.929-10.996-11.003
				c0-6.077,4.925-11.005,10.996-11.005C145.736,61.24,150.66,66.168,150.66,72.245z"/>
			<g>
				<polygon fill="#FFFFFF" points="135.982,75.772 132.453,72.246 135.982,68.715 136.877,69.607 134.239,72.244 136.877,74.879 
									"/>
				<polygon fill="#FFFFFF" points="143.338,75.772 142.444,74.879 145.084,72.244 142.443,69.607 143.339,68.715 146.869,72.246 
									"/>
				
					<rect x="139.026" y="67.082" transform="matrix(0.9622 0.2723 -0.2723 0.9622 24.946 -35.295)" fill="#FFFFFF" width="1.263" height="10.325"/>
			</g>
		</g>
	</g>
</g>
</svg>
