<svg xmlns="http://www.w3.org/2000/svg" xmlns:xlink="http://www.w3.org/1999/xlink" id="Layer_1" width="155" height="155" x="0" y="0" enable-background="new 0 0 155 155" version="1.1" viewBox="0 0 155 155" xml:space="preserve"><g><circle cx="77.5" cy="77.5" r="77.5" fill="#474F59"/><g><g><path fill="#D9D8D7" d="M14.023,86.47c0,0,0,43.813,0,47.503c0,2.804,2.273,5.066,5.077,5.066h5.054V86.47H14.023z"/><path fill="#FFF" d="M116.513,27.653v106.319c0,2.792-2.274,5.066-5.065,5.066H19.101c2.79,0,5.054-2.239,5.054-5.043V27.653 H116.513z"/><g><g><rect width="74.152" height="34.788" x="33.258" y="54.784" fill="#E6E5E5"/><g><rect width="2.581" height="20.628" x="37.396" y="65.842" fill="#656A73"/><rect width="2.574" height="28.571" x="41.24" y="57.898" fill="#232E38"/><rect width="2.576" height="17.911" x="45.075" y="68.559" fill="#353F49"/><rect width="2.569" height="23.819" x="48.916" y="62.65" fill="#474F59"/><rect width="2.577" height="5.868" x="54.657" y="80.602" fill="#656A73"/><rect width="2.581" height="13.337" x="58.499" y="73.133" fill="#232E38"/><rect width="2.578" height="10.863" x="62.334" y="75.606" fill="#353F49"/><rect width="2.57" height="19.674" x="66.177" y="66.796" fill="#474F59"/><rect width="2.575" height="7.018" x="71.916" y="79.452" fill="#656A73"/><rect width="2.576" height="5.762" x="75.758" y="80.708" fill="#232E38"/><rect width="2.582" height="16.372" x="79.594" y="70.098" fill="#353F49"/><rect width="2.566" height="11.379" x="83.439" y="75.091" fill="#474F59"/><rect width="2.58" height="26.269" x="89.175" y="60.201" fill="#656A73"/><rect width="2.58" height="18.021" x="93.015" y="68.448" fill="#232E38"/><rect width="2.573" height="10.054" x="96.856" y="76.416" fill="#353F49"/><rect width="2.574" height="22.196" x="100.695" y="64.273" fill="#474F59"/></g></g><g><g><g><rect width="35.485" height="2.126" x="33.26" y="95.911" fill="#CCCBCA"/><rect width="35.485" height="2.13" x="33.26" y="101.228" fill="#CCCBCA"/><rect width="35.485" height="2.124" x="33.26" y="106.545" fill="#CCCBCA"/><rect width="35.485" height="2.126" x="33.26" y="111.866" fill="#CCCBCA"/><rect width="35.485" height="2.131" x="33.26" y="117.186" fill="#CCCBCA"/><rect width="35.485" height="2.13" x="33.26" y="127.819" fill="#CCCBCA"/><rect width="35.485" height="2.133" x="33.26" y="122.498" fill="#CCCBCA"/></g></g><g><g><rect width="35.494" height="2.126" x="71.916" y="95.911" fill="#CCCBCA"/><rect width="35.494" height="2.131" x="71.916" y="117.186" fill="#CCCBCA"/><rect width="35.494" height="2.131" x="71.916" y="122.498" fill="#CCCBCA"/><rect width="18.466" height="2.132" x="71.916" y="127.817" fill="#CCCBCA"/><rect width="35.494" height="12.766" x="71.916" y="101.228" fill="#656A73"/></g></g></g><g><rect width="74.152" height="6.383" x="33.258" y="36.75" fill="#F77B55"/><rect width="74.152" height="2.13" x="33.258" y="46.316" fill="#474F59"/></g></g></g><g><circle cx="116.509" cy="27.652" r="23.614" fill="#CCCBCA"/><path fill="#FFF" d="M140.882,34.301c-0.167,0.636-0.583,1.195-1.198,1.55c-0.609,0.346-1.309,0.419-1.936,0.243l-7.391-2.017 l1.348-4.919l7.389,2.009c0.63,0.175,1.197,0.588,1.543,1.199C140.984,32.974,141.053,33.671,140.882,34.301z"/><path fill="#D9D8D7" d="M131.705,29.158l-1.348,4.919l2.754,0.749c0.671-1.541,1.133-3.192,1.343-4.921L131.705,29.158z"/><circle cx="116.511" cy="27.652" r="15.956" fill="#FFF"/><circle cx="116.51" cy="27.652" r="13.401" fill="#F77B55"/><path fill="#EE643C" d="M106.94,31.482c0-7.403,5.995-13.398,13.398-13.398c2.722,0,5.255,0.804,7.366,2.203 c-2.397-3.639-6.513-6.038-11.194-6.038c-7.403,0-13.401,6.001-13.401,13.403c0,4.678,2.405,8.799,6.034,11.195 C107.752,36.733,106.94,34.201,106.94,31.482z"/></g><g><polygon fill="#FFF" points="136.55 65.178 134.988 70.312 140.123 70.312 138.559 65.178"/><polygon fill="#CCCBCA" points="137.926 65.178 138.507 70.312 140.123 70.312 138.559 65.178"/><rect width="5.135" height="60.292" x="134.988" y="70.312" fill="#FFDB79"/><rect width="1.616" height="60.292" x="138.507" y="70.312" fill="#FAB83E"/><polygon fill="#656A73" points="138.56 65.178 137.553 61.879 136.542 65.178"/><polygon fill="#232E38" points="138.56 65.178 137.553 61.879 137.934 65.178"/><rect width="5.135" height="2.977" x="134.988" y="130.604" fill="#F2F2F2"/><rect width="1.616" height="2.977" x="138.507" y="130.604" fill="#CCCBCA"/><path fill="#474F59" d="M140.123,136.473c0,0.651-0.252,1.318-0.751,1.814c-0.503,0.501-1.159,0.752-1.819,0.752l0,0 c-0.656,0-1.314-0.251-1.813-0.752c-0.5-0.496-0.752-1.163-0.752-1.814v-2.893h5.135V136.473z"/><path fill="#232E38" d="M135.74,138.287c-0.292-0.292-0.488-0.636-0.609-1.007c0.261,0.089,0.54,0.14,0.811,0.14 c0.658,0,1.318-0.249,1.816-0.747c0.498-0.5,0.749-1.159,0.749-1.813v-1.279h1.616v2.893c0,0.651-0.252,1.318-0.751,1.814 c-0.503,0.501-1.159,0.752-1.819,0.752C136.896,139.039,136.238,138.788,135.74,138.287z"/></g></g></g></svg>