<?xml version="1.0" encoding="utf-8"?>
<!-- Generator: Adobe Illustrator 16.0.0, SVG Export Plug-In . SVG Version: 6.00 Build 0)  -->
<!DOCTYPE svg PUBLIC "-//W3C//DTD SVG 1.1//EN" "http://www.w3.org/Graphics/SVG/1.1/DTD/svg11.dtd" [
	<!ENTITY ns_flows "http://ns.adobe.com/Flows/1.0/">
	<!ENTITY ns_extend "http://ns.adobe.com/Extensibility/1.0/">
	<!ENTITY ns_ai "http://ns.adobe.com/AdobeIllustrator/10.0/">
	<!ENTITY ns_graphs "http://ns.adobe.com/Graphs/1.0/">
]>
<svg version="1.1" id="Layer_1" xmlns:x="&ns_extend;" xmlns:i="&ns_ai;" xmlns:graph="&ns_graphs;"
	 xmlns="http://www.w3.org/2000/svg" xmlns:xlink="http://www.w3.org/1999/xlink" xmlns:a="http://ns.adobe.com/AdobeSVGViewerExtensions/3.0/"
	 x="0px" y="0px" width="155px" height="155px" viewBox="0 0 155 155" enable-background="new 0 0 155 155" xml:space="preserve">
<g>
	<circle fill="#FFDB79" cx="77.5" cy="77.5" r="77.5"/>
	<g>
		<g>
			<g>
				<path fill="#353F49" d="M139.36,39.008c-0.81-0.822-1.88-1.213-2.954-1.213H18.592c-1.061,0-2.134,0.391-2.954,1.213
					c-0.805,0.819-1.213,1.882-1.213,2.967v72.8h126.15v-72.8C140.575,40.89,140.182,39.827,139.36,39.008z"/>
				<g>
					<path fill="#474F59" d="M79.271,40.994c0,0.988-0.794,1.782-1.767,1.782c-0.985,0-1.78-0.794-1.78-1.782
						c0-0.979,0.795-1.752,1.78-1.752C78.478,39.242,79.271,40.015,79.271,40.994z"/>
					<path fill="#FFFFFF" d="M78.266,40.994c0,0.43-0.357,0.766-0.761,0.766c-0.413,0-0.771-0.336-0.771-0.766
						c0-0.401,0.358-0.74,0.771-0.74C77.908,40.254,78.266,40.593,78.266,40.994z"/>
				</g>
				<rect x="20.99" y="44.208" fill="#FFFFFF" width="113.022" height="70.566"/>
				<g>
					<path fill="#353F49" d="M103.91,79.49c0,14.585-11.817,26.402-26.404,26.402c-14.588,0-26.412-11.817-26.412-26.402
						c0-14.587,11.824-26.404,26.412-26.404C92.093,53.086,103.91,64.903,103.91,79.49z"/>
					<path fill-rule="evenodd" clip-rule="evenodd" fill="#FFFFFF" d="M71.32,101.571c0.104,0.023,0.397-0.082,0.479-0.104
						c-0.203-0.156-0.628-0.17-0.876-0.325c0.026,0.006-0.791-0.486-0.617-0.076c0.037,0.092,0.194,0.01,0.262,0.063
						c-0.094,0.144-0.145,0.104-0.025,0.167c0-0.002-0.905-0.497,0.003-0.522c-0.633-0.579,0.038-0.405-0.161-0.76
						c-0.137-0.231,0.53-0.467,0.173-0.686c-0.172-0.09-0.356-0.072-0.542-0.197c-0.238-0.18-0.016-0.5,0.223-0.474
						c0.02,0,0.146-0.56,0.185-0.662c-0.058-0.02-0.528-0.597-0.423-0.72c0.145-0.148,0.748,0.372,0.901-0.006
						c0.062-0.145-0.218-0.513-0.188-0.667c0.273-0.025,2.071,0.036,1.771-0.795c-0.103-0.274-0.874-0.709-0.792-0.942
						c0.273,0.044,0.707,0.418,0.982,0.261c0.238-0.108,0.421,0.14,0.664-0.139c0.037-0.045,0.441-0.464,0.328-0.554
						c-0.129-0.002-0.185,0.078-0.205,0.203c-0.136-0.188,0.113-0.324,0.234-0.456c0.039,0.047,0.065,0.081,0.088,0.116
						c0.154-0.222,0.989-1.317,1.012-1.339c0.426-0.497,0.078-1.167,0.502-1.554c0.389-0.354,0.811-0.59,1.295-0.798
						c0.137-0.048,0.676-0.336,0.779-0.295c0.893,0.268,0.779-0.781,1.341-1.263c0.573-0.482,0.152-2.922,0.612-3.104
						c0.251-0.104,1.01-1.035,1.399-1.452c0.374-0.401,0.423-0.939,0.279-1.457c-0.23-0.778-0.448-0.338-1.025-0.679
						c-0.45-0.265-0.811-0.828-1.368-0.887c-0.333-0.047-0.678,0.043-1.01-0.045c-0.143-0.055-0.529-0.281-0.664-0.088
						c0.023-0.027-0.308,0.133-0.289,0.139c-0.031-0.021-0.006-0.444-0.11-0.533c-0.171-0.166-0.762-0.328-0.982-0.396
						c-0.481-0.113-0.608,0.462-0.728-0.231c-0.409-0.12-0.813-0.578-0.742-0.699c0.033-0.046-0.639-1.467-0.73-1.332
						c-0.006-0.477-1.467-1.059-1.847-0.835c-0.335,0.248-0.948-0.218-1.162-0.447c-0.224-0.242-0.218-0.52-0.613-0.683
						c-0.167-0.061-0.448-0.027-0.392-0.32c0.07-0.294-0.715-0.36-0.791-0.643c0.106,0.016,0.199-0.055,0.316-0.074
						c-0.314,0.111-0.684-0.124-0.99,0.133c-0.438,0.362-0.699-0.166-1.186-0.069c-0.609,0.106-0.207-0.108-0.586-0.359
						c0.16,0.106-0.722-0.391-0.51-0.377c-0.182-0.016,0.023,0.309-0.175,0.367c-0.319,0.124-0.593,0.191-0.391,0.588
						c0.349,0.696-0.738,0.365-0.229-0.112c0.09-0.076,0.125-0.999,0.223-0.967c-0.133-0.04-1.114,0.607-1.234,0.744
						c-0.309-0.51-0.854,1.253-1.033,1.264c-0.088-0.423-0.502-0.606-0.858-0.733c-0.313-0.123-0.625,0.616-1.017,0.208
						c-0.721-0.713-0.406-1.88-0.045-2.711c0.154-0.372-1.324-0.493-1.5-0.343c-0.359,0.297,0.059-0.593,0.059-0.571
						c0.033-0.36,0.115-0.606,0.275-0.603c0.097-0.21,0.648-1.19,0.587-1.319c-0.214-0.511-1.14,0.413-1.228,0.634
						c-0.104,0.218-0.282,0.35-0.365,0.548c-0.088,0.197-0.26-0.042-0.408,0.045c-0.393,0.224-0.967,0.103-0.879-0.476
						c0.089-0.711-0.175-2.094,0.605-2.575c0.24-0.134,0.286-0.843,0.561-1.08c0.031-0.029,0.828-0.489,0.75-0.594
						c0.113,0.13,0.744-0.113,0.824,0.045c0.053,0.125,0.428,0.267,0.549,0.204c-0.004,0.012,0.069-0.314,0.069-0.318
						c-0.011-0.002-0.256-0.028-0.247-0.12c0.023-0.098,0.771-0.036,0.804-0.032c0.352,0.026,0.61,0.326,0.872,0.148
						c0.408-0.284,0.158,1.536,0.322,1.702c0.088,0.103,0.021,0.317,0.189,0.304c0.236-0.025,0.313-2.355,0.91-2.843
						c0.435-0.346,0.916-0.673,1.408-0.941c0.143-0.07,0.547-0.262,0.631-0.415c-0.014-0.092-0.091-0.168-0.174-0.1
						c-0.022-0.142,0.223-0.045,0.262-0.197c0.049-0.153-0.121-0.194-0.104-0.249c-0.007,0.014,0.152-0.304,0.096-0.264
						c0.008,0.01,0.008,0.021,0.009,0.027c0.241,0.047-0.045-0.216-0.069-0.259c0.321,0.166,0.193-0.341,0.497-0.369
						c-0.214,0.085-0.178,0.34-0.141,0.479c0.056,0.333,0.354-0.446,0.311-0.415c0.304-0.129,0.759-0.371,1.08-0.604
						c-0.077-0.029-0.157,0.021-0.244-0.035c0.328-0.123,0.698-0.07,1.001-0.231c-0.013-0.334,0.181-0.671,0.556-0.747
						c0.567-0.078,1.219-0.421,1.786-0.611c-0.084,0.196,0.053,0.044,0.195,0.104c-0.18-0.479-1.184,0.893-0.702,0.616
						c0.402-0.227,1.759-0.45,1.937-0.833c-0.004-0.024-0.086-0.286-0.085-0.286c-0.335,0-0.359,0.416-0.769,0.412
						c-0.75-0.006-0.304-0.466-0.461-0.673c-0.127,0.031-0.234-0.004-0.324-0.111c0.064-0.01,0.987-0.227,0.51-0.339
						c-0.797-0.17-1.32,0.711-1.973,0.689c0.488-0.303,1.149-0.92,1.736-1.008c0.624-0.081,1.503,0.211,2.05-0.169
						c0.492-0.337,0.827-0.084,1.104-0.651c0.084-0.15-0.359-0.339-0.467-0.356c0.041-0.053,0.15,0,0.182-0.084
						c-0.744-0.337-0.899-0.664-0.987-1.519c-0.373,0.266-1.635,0.86-0.961-0.098c-0.243-0.114-1.01-0.74-1.308-0.306
						c-0.13,0.191-0.349,0.524-0.58,0.636c-0.501,0.223-0.045,0.18-0.215,0.521c-0.292,0.545-0.975,0.481-1.303,0.968
						c-0.198,0.304-0.264,0.515-0.585,0.657c-0.274,0.112-0.378-0.221-0.251-0.467c0.109,0.113,0.199,0.127,0.279,0.038
						c0.02-0.122-0.15-0.05-0.207-0.097c0.092-0.174,0.223-0.327,0.356-0.474c-0.041-0.026-0.757-0.141-0.726-0.321
						c0.041-0.388-0.45-0.177-0.535-0.299c0.385-0.484,0.385-0.701,1.131-1.074c0.254-0.126,1.682-0.849,1.943-0.67
						c-0.027,0.16-0.205,0.117-0.309,0.211c0.21,0.045,0.809,0.117,1.004-0.02c-0.037-0.039-0.278-0.448-0.16-0.53
						c-0.016,0.018,0.41,0.006,0.449-0.002c0.221-0.071,0.472-0.093,0.609-0.313c0.108-0.21,0.863-0.477,1.039-0.37
						c0.989,0.555-1.336,1.136-1.355,1.076c0.051,0.167,0.671-0.116,0.83,0.319c0.044,0.113,0.754,0.341,0.826,0.229
						c0.033-0.045-0.213-0.294-0.221-0.366c0.75,0.356,0.712,0.173,0.583-0.329c-0.112-0.479,0.433,0.028,0.474,0.04
						c0.12,0.079,0.623-0.218,0.699-0.313c-0.18-0.145-0.499-0.143-0.656-0.313c-0.142-0.143,0.394-0.183,0.207-0.337
						c-0.229-0.186-0.587-0.145-0.463-0.499c-0.127-0.053-0.256-0.039-0.367,0.039c0.029,0.062,0.106,0.014,0.143,0.05
						c-0.133,0.078-0.276,0.099-0.408,0.095c0.037-0.077,0.174-0.077,0.176-0.188c-0.393-0.062-0.592,0.188-0.928,0.278
						c0.094-0.129,0.256-0.182,0.366-0.274c-0.36,0.041-0.714,0.184-1.008,0.417c0.048,0.031,0.082,0.086,0.122,0.14
						c-0.291,0.25-0.663,0.326-0.994,0.479c0.049-0.222,0.29-0.165,0.371-0.331c-0.119,0-0.244,0.02-0.346,0.066
						c0.144-0.016,0.558-0.429,0.652-0.534c-0.598-0.066-0.853,0.706-1.422,0.603c0.112-0.135,0.356-0.074,0.436-0.283
						c-0.203,0.02-1.005,0.551-1.129,0.283c-0.005-0.02,1.451-0.603,1.608-0.809c-0.096-0.008-0.217,0.079-0.308-0.027
						c0.074-0.088,0.188-0.092,0.283-0.172c-0.483-0.004-1.911,0.571-1.803,0.9c-0.183,0.156-0.377,0.189-0.606,0.104
						c0.087-0.133,0.403-0.137,0.151-0.339c-0.469,0.172-0.912,0.36-1.354,0.553c-1.04,0.454-2.049,0.995-3.002,1.573
						c-1.58,0.98-2.879,2.135-4.188,3.452c-0.691,0.699-3.338,3.773-3.33,4.417c0.018,0.479-0.268,0.895-0.443,1.324
						c-0.148,0.352-0.16,0.842-0.335,1.166c-0.376,0.677-0.201,1.475-0.375,2.251c0.209-0.167,0.667-3.752,1.047-3.613
						c0.078,0.021-0.241,1.492-0.323,1.672c-0.329,0.744,0.111,1.679-0.107,2.452c-0.021,0.091-0.137,0.479-0.139,0.571
						c-0.358,0.267,0.105,0.69,0.092,0.994c0,0.187,0.934,1.002,1.115,1.099c0.381,0.238,0.461-0.185,0.811-0.097
						c0.323,0.063,0.412,0.646,0.582,0.889c0.229,0.339,1.094,0.3,1.246,0.464c0.096,0.108,0.016,0.77,0.412,0.875
						c-0.002-0.043-0.01-0.287,0.049-0.314c0.115-0.071,0.369,0.363,0.285,0.454c-0.131,0.027-0.24-0.021-0.334-0.14
						c0,0.055-0.067,0.916,0.188,0.746c0.003-0.044,0.016-0.098,0.03-0.162c0.321,0.146,0.3,0.636,0.537,0.712
						c0.322,0.076,0.567,0.499,0.813,0.599c0.21,0.118,0.146-0.754,0.559-0.788c0.334-0.045,0.529,0.817,0.643,1.045
						c0.173,0.308-0.236,1.037-0.005,1.266c0.231,0.247-0.575,0.821-0.608,1.076c-0.037,0.186-0.445,0.365-0.421,0.429
						c0.026,0.199-0.091,0.479-0.163,0.673c-0.211,0.533-0.111,0.601,0.248,0.835c0.008,0.006-0.654,1.327-0.279,1.665
						c0.611,0.493,1.397,1.703,1.587,2.484c0.396,1.048,0.995,1.693,1.999,2.215c0.82,0.435,1.398,1.163,1.398,2.144
						c0.027,0.571-0.059,1.308,0.187,1.845c0.171,0.375-0.155,0.999,0.091,1.338c0.156,0.218-0.056,0.337,0.037,0.54
						c0.106,0.205,0.319,0.557,0.316,0.813c-0.006,0.407-0.002,0.9,0.033,1.317c0.007,0.129-0.13,0.38-0.054,0.452
						c0.094,0.123,0.651,1.493,0.651,1.904c-0.001,0.086,0.428-0.048,0.035-0.429c0.469-0.249,0.377,0.827,0.404,0.833
						c-0.417-0.141-0.15-0.02-0.112,0.506c0.021,0.321-0.081,0.166,0.177,0.219c0.396,0.103,0,0.373,0.145,0.597
						c0.311,0.442,0.784,0.851,1.107,1.188C69.797,101.518,70.702,101.442,71.32,101.571
						C71.411,101.591,71.209,101.535,71.32,101.571z M73.037,58.515c-0.138,0.135-0.295,0.158-0.46,0.218
						C72.688,58.555,72.863,58.587,73.037,58.515z M71.668,58.411c0.102-0.012,0.188,0.018,0.246,0.08
						c0.001,0.052-0.563,0.079-0.648,0.21C71.34,58.46,71.551,58.497,71.668,58.411C71.727,58.479,71.551,58.497,71.668,58.411z
						 M70.29,59.388C70.404,59.413,70.116,59.353,70.29,59.388C70.294,59.392,70.25,59.372,70.29,59.388z M69.53,57.941
						c0.042-0.061,0.091-0.051,0.114,0.023C69.586,58.018,69.553,58.01,69.53,57.941C69.535,57.907,69.525,57.971,69.53,57.941z
						 M68.775,60.182C68.556,60.172,68.992,60.195,68.775,60.182C68.736,60.182,68.801,60.188,68.775,60.182z M68.992,59.315
						c-0.727,0.688-0.166,0.008-0.374,0.232c0.007,0.012,0,0.02-0.007,0.021C68.549,59.493,68.977,59.321,68.992,59.315
						C68.898,59.411,68.87,59.339,68.992,59.315z M68.725,58.499c-0.14,0.154-0.14,0.154-0.321,0.125
						C68.498,58.563,68.635,58.593,68.725,58.499z M72.004,55.919c-0.039,0.002-0.094,0.002-0.17,0.002
						C72.072,55.722,72.027,55.919,72.004,55.919C71.965,55.921,72.046,55.919,72.004,55.919z M72.531,55.563
						c-0.068,0.078-0.192,0.031-0.291,0.07C72.344,55.437,72.361,55.435,72.531,55.563z M69.561,55.8
						c0.064-0.049,0.143-0.078,0.225-0.07C69.846,55.822,69.326,55.891,69.561,55.8C69.586,55.751,69.539,55.811,69.561,55.8z
						 M69.422,55.642c0.085,0.061,0.078,0.092-0.018,0.127C69.328,55.733,69.34,55.702,69.422,55.642
						C69.461,55.642,69.389,55.647,69.422,55.642z M65.584,62.216c0.005-0.002-1.157,0.466-1.068,0.176
						c-0.025,0.095,0.398-0.33,0.312-0.285c0.093-0.047,0.865-0.083,1.097-0.082C65.799,62.144,65.69,62.179,65.584,62.216
						C65.327,62.32,65.69,62.179,65.584,62.216z M66.508,61.65c0.951,0.102-0.572,0.378-0.734,0.203
						C65.996,61.672,66.245,61.623,66.508,61.65C66.586,61.656,66.245,61.623,66.508,61.65z M66.35,55.712
						c0.252-0.166,0.525-0.287,0.859-0.376c-0.245,0.214-0.574,0.292-0.865,0.38L66.35,55.712z M66.394,60.867
						c-0.036,0.049-0.086,0.049-0.114-0.002C66.34,60.842,66.387,60.83,66.394,60.867C66.426,60.916,66.387,60.83,66.394,60.867z
						 M66.117,61.449C66.1,61.449,66.023,61.426,66.117,61.449C66.121,61.449,66.091,61.434,66.117,61.449z M65.839,60.959
						c0.347,0.165,0.142,0.697-0.151,0.278c-0.01,0.25-0.441,0.674-0.68,0.729c0.092-0.113,0.115-0.207,0.092-0.328
						c-0.078-0.059-0.227,0.113-0.307,0.111c0.041,0.13,0.633-1.033,0.133-0.68c-0.177,0.124-1.381,1.404-1.441,1.325
						c-0.119-0.105,0.525-1.045,0.564-1.078C64.461,60.981,65.327,60.705,65.839,60.959z M65.173,56.503
						c0.044-0.023,0.435-0.251,0.487-0.199c0.115,0.156-0.625,0.338-0.658,0.344C65.041,56.559,65.111,56.548,65.173,56.503
						C65.301,56.437,65.111,56.548,65.173,56.503z M65.255,59.633c-0.002,0.016-0.154,0.314-0.247,0.191
						C64.936,59.75,65.222,59.493,65.255,59.633C65.246,59.696,65.248,59.596,65.255,59.633z M64.416,57.231
						c0.039,0,0.667-0.406,0.684-0.247C65.104,57.051,64.344,57.242,64.416,57.231z M64.245,57.867
						c-0.045,0.072-0.073,0.1-0.161,0.098C64.11,57.894,64.172,57.889,64.245,57.867z M63.815,59.353
						c0.085-0.058,0.282-0.386,0.187-0.521c0.047,0.08-0.38-0.038-0.178-0.105c0.082-0.039,0.557-0.292,0.637-0.226
						c0.146,0.148-0.602,0.944-0.756,0.996C63.729,59.421,63.767,59.392,63.815,59.353C63.934,59.271,63.767,59.392,63.815,59.353z
						 M64.238,60.337c0.531-0.171,0.721-0.476,1.045-0.055c0.126,0.148,0.098,0.542-0.184,0.454c0.078,0.021-0.865-0.07-0.691-0.168
						c-0.197,0.113-0.563,0.195-0.789,0.098C63.829,60.557,64.013,60.421,64.238,60.337C64.365,60.304,64.013,60.421,64.238,60.337z
						 M63.491,59.345c0.042,0.13,0.013,0.203-0.138,0.225C63.415,59.475,63.449,59.411,63.491,59.345z M55.914,70.88
						C55.668,70.873,56.1,70.873,55.914,70.88C55.875,70.88,55.936,70.88,55.914,70.88z M58.967,73.075
						C58.898,73.095,59.156,73.027,58.967,73.075C58.958,73.077,58.998,73.07,58.967,73.075z M66.437,75.545
						C66.302,75.523,66.589,75.555,66.437,75.545C66.428,75.545,66.451,75.547,66.437,75.545z M67.651,97.426
						C67.446,97.393,67.775,97.26,67.651,97.426C67.607,97.422,67.654,97.422,67.651,97.426z M68.201,86.481
						C68.124,86.396,68.244,86.519,68.201,86.481C68.195,86.474,68.215,86.495,68.201,86.481z M68.288,93.29
						C68.146,93.354,68.438,93.248,68.288,93.29C68.246,93.3,68.303,93.284,68.288,93.29z M69.003,100.648
						c-0.097-0.052-0.097-0.085-0.007-0.114C69.111,100.585,69.113,100.627,69.003,100.648
						C68.966,100.643,69.039,100.656,69.003,100.648z M69.958,101.066c-0.097-0.031-0.089-0.061,0.026-0.111
						C70.068,100.98,70.063,101.018,69.958,101.066C69.913,101.066,69.982,101.045,69.958,101.066z M67.941,98.34
						c-0.007,0.008-0.03,0.012-0.038,0.013C67.941,98.332,67.945,98.328,67.941,98.34z M70.307,54.402c0,0-0.002,0-0.003,0
						c0.001,0,0.001-0.002,0.001-0.002L70.307,54.402z M61.331,58.646c0,0.004-0.002,0.004-0.002,0.004L61.331,58.646z
						 M61.583,58.444L61.583,58.444L61.583,58.444z M103.479,74.762l0.002,0.004c-0.514-1.904-0.898-3.781-1.691-5.623
						c-0.936-2.192-2.163-4.27-3.648-6.124c-1.405-1.742-3.024-3.337-4.822-4.682c-0.879-0.657-1.793-1.239-2.744-1.784
						c-0.448-0.261-0.918-0.506-1.384-0.748c-0.207-0.087-0.92-0.272-1.038-0.451c0.01,0.079,0.424,0.278,0.48,0.349
						c-0.279-0.082-1.018-0.399-1.025-0.44c0.014-0.027,0.07,0,0.064-0.055c-0.412-0.268-1.972-0.836-2.286-0.419
						c0.066-0.082,1.072,1.085,1.096,1.294c0.071,0.45,0.785,0.921,1.227,1.072c0.636,0.222,0.162-0.063,0.424-0.209
						c0.176-0.082,0.334,0.288,0.499,0.195c-0.004-0.004,0-0.006,0.002-0.012c-0.048-0.074-0.098-0.17-0.152-0.248
						c-0.038,0,1.15,1.224,1.299,0.943c-0.145-0.335-0.355-0.707-0.69-1.019c-0.297-0.273-0.773-0.307-1.095-0.579
						c-0.164-0.137-0.763-0.593-0.825-0.788c0.794,0.024,1.714,1.708,2.505,1.051c-0.102-0.063-0.211-0.16-0.315-0.235
						c0.145,0.042,0.813,0.245,0.593,0.536c-0.64-0.121,0.533,0.528,0.547,0.605c-0.112-0.006-0.188-0.104-0.298-0.112
						c0.047,0.216,0.673,0.456,0.721,0.831c-0.38,0.048-0.214-0.228-0.46,0.069c-0.081,0.108-0.419,0.081-0.601,0.091
						c-0.438,0.031-0.922-0.707-1.244-0.939c0.132,0.42,0.361,0.618,0.825,0.908c0.215,0.114-0.313,0.188-0.308,0.371
						c0.012,0,0.148,0.057,0.145,0.104c0,0.02-0.131-0.091-0.145-0.104c0.037-0.021-0.083,0.723-0.093,0.709
						c0.365,0.427-0.475,0.306-0.488,0.315c0.063,0.102,0.193,0.146,0.226,0.285c-0.247,0.018-0.45-0.027-0.68,0.057
						c0.344,0.104,2.233,0.98,1.823,1.643c-0.129,0.209-1.42-0.049-1.649-0.057c-0.497-0.052-0.037,0.46-0.027,0.526
						c0.079,0.378,0.375,0.544,0.354,0.976c-0.028,0.311,0.294,0.32,0.385,0.59c0.091,0.22,0.041,0.235,0.279,0.284
						c0.413,0.053,0.43-0.012,0.787,0.256c0.255,0.19,0.346-0.182,0.651-0.191c0.754-0.028,0.113-0.185,0.466-0.292
						c0.454-0.111-0.116-0.807-0.092-0.947c0.031-0.182-0.024-0.398,0.219-0.453c0.377-0.11-0.107-0.504-0.133-0.617
						c-0.07-0.312,1.051,0.279,0.912-0.519c0.652,0.197,1.319,0.794,1.92,1.134c0.345,0.203,0.694,0.4,0.955,0.728
						c0.304,0.409-0.44,0.254-0.487,0.354c-0.045,0.129,0.657,0.452,0.771,0.446c0.012-0.067-0.091-0.48-0.098-0.541
						c-0.038-0.289-0.442-0.573-0.405-0.788c0.121,0.012,0.238,0.068,0.341,0.145c-0.381-0.472-0.992-0.511-1.419-0.854
						c-0.261-0.209-0.588-0.381-0.84-0.612c-0.002-0.002-0.468-0.57-0.144-0.474c0.504,0.189,1.054,0.697,1.565,0.957
						c0.415,0.208,0.51,0.351,0.806,0.691c0.131,0.146,0.757,0.881,0.893,0.907c-0.004-0.013,0.512,0.442,0.719,0.519
						c-0.095-0.205-0.172-0.474-0.28-0.644c-0.142-0.226-0.727-0.354-0.727-0.703c0.133,0.016,0.152-0.126,0.435-0.116
						c-0.15-0.008,0.186-0.228,0.166-0.19c-0.552-0.315-1.288-1.224-1.487-1.844c0.15,0.006,0.237,0.2,0.405,0.107
						c-0.065-0.107-0.073-0.229-0.065-0.332c0.045,0.049,0.568,0.489,0.458,0.572c-0.143-0.002-0.26-0.063-0.369-0.176
						c0.072,0.253,0.333,0.271,0.44,0.45c0.016-0.078-0.034-0.129,0.031-0.221c0.444,0.201,1.374,0.918,1.493,1.429
						c-0.197,0.014-0.583-0.423-0.715-0.31c-0.046,0.109-0.042,0.209,0.025,0.312c-0.069,0.004-0.115,0.012-0.168,0.036
						c0.075,0.054,0.108,0.138,0.124,0.216c-0.073,0.041-0.147,0.061-0.222,0.082c0.063,0.243,1.401,1.53,1.497,1.396
						c0.024-0.042-0.057-0.175-0.037-0.192c0.065-0.078,0.278,0.289,0.392,0.21c0.09-0.054-0.086-0.174,0.008-0.216
						c0.205-0.109,1.002,1.468,1.105,1.657c0.389,0.723,0.13,0.284-0.162,0.379c-0.043,0.083-0.078,0.156-0.086,0.242
						c-0.465-0.105-0.979-0.388-1.359-0.646c-0.602-0.443,0.201,1.186-0.16,0.988c-0.197-0.119-0.326-0.292-0.576-0.313
						c-0.371-0.053-0.471-0.44-0.808-0.558c-0.283-0.083-1.373-0.189-1.229-0.691c0.109-0.422-0.435-0.772-0.614-0.936
						c-0.098-0.091-1.314,0.069-1.506,0.116c-0.332,0.117-0.861,0.233-1.051,0.548c-0.315,0.571-1.061-0.185-1.358-0.076
						c-0.156,0.076-0.004,0.538-0.089,0.688c-0.116,0.239-0.414,0.259-0.494,0.518c-0.125,0.491,0.254,0.906,0.08,1.368
						c-0.135,0.361-0.836,0.513-0.846,0.797c-0.004,0.166-0.039,0.343-0.188,0.438c-0.313,0.18,0.014,0.585-0.186,0.809
						c-1.074,1.09,0.342,2.152,0.104,3.36c-0.145,0.679-0.218,0.823,0.072,1.403c0.073,0.154,0.02,1.205,0.554,0.78
						c0.061,0.607,0.861,0.738,0.998,1.329c0.17,0.691,0.85,0.98,1.382,1.413c0.21,0.16,0.386,0.376,0.637,0.504
						c0.438,0.211,0.724-0.126,1.139-0.233c0.38-0.112,0.768-0.076,1.117,0.094c0.208,0.098,1.727-0.988,2.14-0.787
						c0.298,0.156,0.313,0.534,0.448,0.793c0.2,0.356,0.613-0.129,0.902,0.008c0.497,0.227,0.641,2.031,0.215,2.366
						c-0.311,0.241,0.41,1.235,0.499,1.438c0.292,0.553,0.545,1.534,0.462,2.159c-0.074,0.503,0.06,1.296-0.221,1.742
						c-0.286,0.456-0.452,0.926-0.689,1.432c-0.595,1.287-0.023,2.756-0.533,4.101c-0.315,0.686-0.263,1.416-0.431,2.14
						c-0.112,0.47-0.673,1.143-0.452,1.608c0.334-0.289,0.84-0.252,1.223-0.442c0.78-0.399,1.151-1.287,1.716-1.897
						c0.306-0.322,0.494-0.715,0.674-1.101c0.174-0.37,0.521-0.617,0.683-0.98c0.396-0.93,0.752-1.84,1.151-2.758
						c0.841-1.997,0.983-3.916,1.271-6.034C103.898,79.15,103.906,77.006,103.479,74.762z M101.482,69.521
						c-0.103-0.278-1.508-2.331-1.346-2.456c0.194-0.106,3.193,5.209,2.871,6.036C102.553,71.895,102.002,70.71,101.482,69.521
						C101.479,69.505,101.587,69.75,101.482,69.521z M102.771,78.938c-0.049-0.148,0.025-0.285,0.061-0.455
						C102.902,78.658,102.801,78.795,102.771,78.938z M102.613,79.776c-0.006-0.103-0.008-0.164,0.053-0.245
						C102.715,79.631,102.668,79.684,102.613,79.776z M102.114,86.597c-0.046,0.031-0.103,0.049-0.154,0.07
						c-0.099,0,0.174-0.143,0.188-0.148C102.134,86.563,102.134,86.579,102.114,86.597
						C102.078,86.669,102.134,86.579,102.114,86.597z M102.194,83.83c-0.006-0.257,0.014-0.276,0.258-0.418
						C102.407,83.589,102.228,83.666,102.194,83.83z M102.479,82.531c-0.008-0.452-0.016-1.012,0.087-1.447
						c0.016,0.776,0.047,1.575,0.023,2.365C102.47,83.283,102.479,82.741,102.479,82.531
						C102.474,82.363,102.479,82.69,102.479,82.531z M102.896,84.012c-0.009,0.437-0.074,1.575-0.344,1.899
						c0.021-0.704,0.279-1.362,0.295-2.067C102.91,83.905,102.896,83.977,102.896,84.012
						C102.896,84.057,102.896,83.977,102.896,84.012z M103.228,79.691c-0.133,0.504-0.002,0.664-0.308,0.954
						c0-0.376-0.145-1.089,0.246-1.323C103.222,79.455,103.257,79.557,103.228,79.691C103.171,79.909,103.257,79.557,103.228,79.691
						z M86.642,104.216c0.046,0.09-3.315,1.023-3.663,1.114c-1.397,0.295-2.805,0.475-4.242,0.535
						c-2.711,0.142-5.55-0.121-8.158-0.898c0.337,0.031,0.742,0.208,1.085,0.155c-0.328-0.2-0.732-0.132-1.015-0.394
						c1.09,0.172,2.122,0.098,3.119,0.23c-0.102-0.141-1.012-0.354-1.009-0.456c0.136-0.01,0.831-0.023,0.856-0.047
						c0.331-0.264-0.521-0.24-0.443-0.423c0.021-0.038,0.256,0.033,0.34-0.065c0.133-0.171,0-0.269,0.053-0.352
						c0.031-0.083,1.354-0.303,1.484-0.25c-0.145,0.098-0.336-0.014-0.266,0.248c-0.129-0.014-0.536-0.004-0.567,0.171
						c0.021-0.057,0.454,0.558,0.468,0.585c0.15,0.245,0.678,0.396,0.725,0.672c0.09,0.479,2.58,0.435,2.959,0.396
						c0.937-0.106,1.813-0.444,2.727-0.61c0.546-0.098,1.094-0.24,1.652-0.306c0.253-0.021,1.115-0.326,1.316-0.244
						C84.191,104.709,86.178,104.138,86.642,104.216C86.644,104.224,86.566,104.204,86.642,104.216z M101.855,89.654
						c0.11-0.278,0.195-0.566,0.325-0.811C102.094,89.105,101.979,89.378,101.855,89.654z M102.296,88.557
						c0.01-0.031,0.021-0.069,0.035-0.093C102.337,88.5,102.308,88.525,102.296,88.557z M73.415,53.978
						c-0.146-0.023-0.3-0.006-0.44-0.027c0.079-0.055,0.52-0.08,0.315-0.203c0.621-0.378,1.893-0.46,2.589-0.366
						c0.794,0.088,1.576-0.145,2.349-0.021c0.317,0.054,0.584,0.058,0.899,0.076c0.271,0.023-0.046,0.312,0.271,0.354
						c0.178,0.018,0.549,0.442,0.717,0.34c-0.016,0.294-0.143,0.103-0.048,0.359c0.019,0.079,0.342,0.257,0.33,0.277
						c-0.025,0.033-0.91-0.019-0.866-0.009c-0.068-0.01,0.02,0.137,0.074,0.114c0.172,0.044,0.554-0.008,0.743,0.002
						c-0.444,0.396-1.109,0.358-1.604,0.676c-0.291,0.199-0.755,0.18-1.084,0.284c0,0.355-0.253,0.763-0.473,1.111
						c-0.156,0.227-1.27-0.321-1.394-0.466c-0.245-0.282-0.79-1.053-0.192-1.292c0.74-0.291,0.005-0.061-0.216-0.219
						c0.175-0.239,0.374-0.165,0.65-0.11c-0.146-0.211-0.321-0.255-0.528-0.15c-0.07-0.219,0.299-0.409-0.031-0.624
						c-0.134-0.106-0.905,0.016-0.936-0.126c-0.041-0.336,0.949-0.158,1.125-0.427C74.922,53.371,74.125,54.094,73.415,53.978
						C73.27,53.954,73.537,53.998,73.415,53.978z M87.31,59.013c0.13-0.012-0.143-0.385-0.214-0.458
						c0.081,0.01,0.145,0.02,0.228-0.046c-0.051-0.172-0.828-0.602-0.879-0.569c-0.294,0.181-0.657-0.643-0.69-0.741
						c0.499-0.077,0.803,0.454,1.251,0.681c0.383,0.184,1.765,0.846,1.801,1.25c0.03,0.21-1.04,0.131-1.198,0.366
						c-0.13-0.307,0.265-0.307,0.254-0.388C87.848,59.021,87.364,59.007,87.31,59.013C87.288,59.015,87.476,58.992,87.31,59.013z
						 M73.247,59.411c-0.075,0.052-1.011,0.928-0.991,1.02c0.018,0.079,0.978,0.025,1.142,0.106
						c-0.022,0.111-0.144,0.067-0.161,0.152c0.115,0,0.504-0.233,0.561-0.17c0.017,0.071,0,0.122-0.029,0.176
						c0.422,0.425,0.387-0.474,0.404-0.533c-0.301-0.034,0.069-0.462-0.434-0.271c0.029-0.027-0.545-0.181-0.505-0.137
						c-0.051-0.058,0.392-0.444,0.436-0.484C73.404,59.188,73.365,59.31,73.247,59.411C73.086,59.519,73.275,59.372,73.247,59.411z
						 M74.166,60.376C74.199,60.425,74.101,60.425,74.166,60.376C74.172,60.401,74.156,60.401,74.166,60.376z M73.951,60.357
						c0.035-0.028,0.195-0.089,0.086-0.006C74.011,60.421,73.866,60.462,73.951,60.357C73.957,60.344,73.936,60.376,73.951,60.357z
						 M73.287,59.287h0.003c0,0,0,0.002,0.017,0.012C73.29,59.289,73.29,59.289,73.287,59.287z M72.443,60.135
						c0.036,0,0.052,0,0.07,0.016C72.492,60.15,72.391,60.146,72.443,60.135C72.479,60.135,72.43,60.139,72.443,60.135z
						 M63.281,71.156c-0.254,0.021,0.168-0.215,0.139-0.285c-0.176-0.416-1.367-0.491-1.488-0.816
						c0.057-0.016,0.088-0.054,0.115-0.117c-0.411-0.163-0.63,0.336-0.995,0.311c0.769-1.313,2.679,0.179,3.446,0.797
						C64.094,71.084,63.689,71.086,63.281,71.156C63.253,71.16,63.508,71.115,63.281,71.156z M64.281,71.848
						c-0.188-0.09,0.639-0.086,0.748-0.121c-0.167-0.265-0.015-0.387-0.334-0.49c0.297-0.351,1.25,0.052,1.559,0.192
						c-0.035,0.035-0.084,0.004-0.12,0.063c0.03,0.021,0.656,0.548,0.231,0.366c-0.47-0.196-0.729,0.074-1.061,0.256
						C65.048,71.75,64.624,72.014,64.281,71.848C64.247,71.835,64.36,71.885,64.281,71.848z M86.636,58.483
						c0.458,0.474-0.238,0.824-0.551,0.521c-0.153-0.163-0.069-0.529-0.425-0.651c0.1-0.024,0.189-0.048,0.287-0.079
						C85.704,57.687,86.525,58.354,86.636,58.483C86.748,58.601,86.612,58.45,86.636,58.483z M80.796,55.654
						c-0.031-0.079,0.642-0.04,0.766-0.063c0.172-0.027,1.513,0.111,1.035,0.324c-0.358,0.165-0.889,0.345-1.243,0.025
						C81.266,55.873,80.802,55.675,80.796,55.654C80.772,55.603,80.821,55.755,80.796,55.654z M93.018,62.3
						c0.158,0,0.539,0.608,0.48,0.699c-0.178,0.287-0.486-0.448-0.669-0.543C92.894,62.417,92.968,62.354,93.018,62.3z
						 M72.132,54.176c0.448-0.362,0.551-0.15,1.124-0.096C73.077,54.242,72.641,54.275,72.132,54.176
						C72.251,54.076,72.641,54.275,72.132,54.176z M82.203,53.774c-0.337-0.091-0.691-0.123-1.018-0.237
						c0.394-0.035,0.869,0.097,1.141,0.19C82.418,53.751,82.184,53.761,82.203,53.774C81.866,53.684,82.238,53.78,82.203,53.774z
						 M81.186,53.537c-0.029,0.011-0.078,0.015-0.107,0.019C81.107,53.52,81.148,53.516,81.186,53.537
						C81.156,53.548,81.174,53.531,81.186,53.537z M63.395,71.869c0.065,0.006,0.111,0.041,0.121,0.117
						c-0.037,0.192-0.643-0.084-0.699-0.163C63.02,71.707,63.206,71.762,63.395,71.869z M67.643,71.855
						C67.328,72.613,66.539,71.321,67.643,71.855C67.6,71.951,67.457,71.758,67.643,71.855z M68.873,75.586L68.873,75.586
						c0.008-0.016,0.021-0.027,0.062-0.031C68.906,75.57,68.893,75.576,68.873,75.586z M68.977,75.57
						c-0.011-0.006,0.086-0.315,0.293-0.327C69.498,75.384,69.09,75.582,68.977,75.57C68.965,75.564,69.234,75.595,68.977,75.57z
						 M71.479,53.998c-0.213,0.136-0.465,0.055-0.679,0.126C71.096,53.923,71.238,53.937,71.479,53.998
						C71.266,54.134,71.436,53.986,71.479,53.998z M63.536,69.493c-0.081-0.315-0.196-0.325,0.021-0.605
						C63.627,69.189,63.627,69.363,63.536,69.493C63.508,69.363,63.627,69.363,63.536,69.493z M57.815,80.414
						c-0.004,0.104-0.052,0.156-0.169,0.105c-0.031-0.028-0.052-0.405,0.011-0.496C57.715,80.153,57.773,80.282,57.815,80.414
						C57.832,80.461,57.773,80.282,57.815,80.414z M71.055,59.756c0.246-0.004,0.443,0.064,0.663,0.225
						C71.423,60.031,71.238,59.938,71.055,59.756z M92.927,62.188l0.002,0.002c-0.079-0.021-0.503-0.277-0.327-0.417
						C92.726,61.678,92.907,62.147,92.927,62.188z M97.355,64.387c-0.083-0.068-0.254-0.021-0.307-0.194
						c0.152,0.087,0.318,0.037,0.464,0.155C97.456,64.381,97.398,64.449,97.355,64.387C97.272,64.318,97.398,64.449,97.355,64.387z
						 M71.85,54.139c-0.039-0.051-0.111-0.017-0.162-0.063c0.125-0.142,0.295-0.099,0.445-0.138
						C72.127,53.954,71.94,54.283,71.85,54.139C71.811,54.088,71.879,54.197,71.85,54.139z M71.106,54.306
						c-0.191,0.152-0.391,0.298-0.657,0.276C70.628,54.395,70.878,54.371,71.106,54.306z M71.048,60.844
						c0.044,0.012,0.104-0.002,0.19-0.006c-0.258,0.321-0.566-0.133-0.498-0.148C70.688,60.701,71.021,60.842,71.048,60.844
						C71.092,60.855,70.936,60.832,71.048,60.844z M71.152,54.436c0.18-0.148,0.398-0.166,0.614-0.152
						C71.578,54.402,71.385,54.458,71.152,54.436z M91.817,62.938c-0.208-0.028,0.391-0.231,0.174,0.053
						C91.927,62.989,91.862,62.972,91.817,62.938C91.789,62.935,91.882,62.942,91.817,62.938z M98.405,64.447
						c-0.122-0.074-0.171-0.146-0.132-0.291C98.38,64.22,98.426,64.311,98.405,64.447z M71.602,55.399
						c0.075-0.134,0.158-0.159,0.419-0.157C71.896,55.382,71.752,55.407,71.602,55.399z M69.703,56.284
						c-0.152,0.089-0.261,0.145-0.426,0.136C69.389,56.284,69.525,56.29,69.703,56.284z M85.548,57.378
						c-0.033,0.057,0,0.089,0.043,0.121c-0.047-0.014-0.236-0.235-0.092-0.268C85.562,57.26,85.587,57.297,85.548,57.378
						C85.515,57.435,85.571,57.335,85.548,57.378z M61.664,70.313c-0.006,0.083-0.057,0.125-0.142,0.121
						C61.488,70.37,61.627,70.146,61.664,70.313C61.678,70.368,61.655,70.27,61.664,70.313z M70.558,97.73
						c0.07,0.032,0.104,0.077,0.112,0.16C70.67,98.115,70.254,97.767,70.558,97.73C70.596,97.726,70.488,97.734,70.558,97.73z
						 M69.958,56.425c-0.056,0.064-0.122,0.109-0.231,0.156C69.787,56.446,69.865,56.429,69.958,56.425z M58.018,80.357
						C57.988,80.629,57.938,80.114,58.018,80.357C58.016,80.402,57.998,80.336,58.018,80.357z M71.723,56.869
						c0.006-0.006,0.021,0.002,0.029,0.004C71.723,56.893,71.663,56.893,71.723,56.869z M70.544,54.332
						c-0.036,0.02-0.067,0.027-0.089,0.031C70.475,54.324,70.505,54.32,70.544,54.332z M70.43,54.367
						c-0.02,0,0.02-0.004,0.025-0.004C70.449,54.363,70.432,54.363,70.43,54.367z M70.31,54.4l-0.003,0.002
						C70.305,54.4,70.307,54.4,70.31,54.4z M70.31,54.4c0.024-0.037,0.075-0.029,0.113-0.033
						C70.396,54.408,70.354,54.412,70.31,54.4z M71.146,54.436h0.006C71.151,54.438,71.146,54.439,71.146,54.436z M71.146,54.438
						c-0.007,0.046-0.051,0.04-0.078,0.04C71.08,54.438,71.106,54.434,71.146,54.438z M61.428,81.494
						C61.375,81.455,61.471,81.52,61.428,81.494C61.408,81.48,61.466,81.514,61.428,81.494z M89.668,56.503
						C89.836,56.559,89.676,56.551,89.668,56.503C89.668,56.503,89.674,56.542,89.668,56.503z M85.593,57.509c0,0,0-0.01-0.002-0.01
						c0.015,0.01,0.017,0.033,0.015,0.055C85.604,57.544,85.602,57.532,85.593,57.509C85.593,57.509,85.602,57.532,85.593,57.509z
						 M71.064,54.478c0.002,0,0.002,0,0.004,0c0,0.004-0.002,0.004-0.008,0.002C71.061,54.479,71.064,54.479,71.064,54.478z
						 M71.006,54.489c0.016-0.008,0.042-0.008,0.055-0.01C71.043,54.522,71.016,54.526,71.006,54.489
						C71.021,54.481,71.01,54.489,71.006,54.489z M95.07,62.656v-0.002l0.004,0.004L95.07,62.656z M74.107,79.678
						C74.023,79.618,74.168,79.637,74.107,79.678C74.101,79.674,74.125,79.662,74.107,79.678z M86.666,104.21
						c-0.017,0.006-0.021,0.006-0.024,0.006c0.002-0.012,0.004-0.018,0.024-0.014V104.21z M86.642,104.216
						C86.642,104.216,86.636,104.216,86.642,104.216L86.642,104.216z M65.545,60.989c0.014-0.006,0.259-0.03,0.172,0.056
						C65.625,61.102,65.578,61.084,65.545,60.989C65.584,60.983,65.547,61.031,65.545,60.989z M64.01,58.832
						c-0.072-0.038-0.059-0.086,0.039-0.145C64.133,58.73,64.119,58.779,64.01,58.832C63.98,58.83,64.066,58.819,64.01,58.832z"/>
				</g>
			</g>
			<g>
				<path fill="#CCCBCA" d="M0,117.167c5.893,2.614,12.416,4.038,19.279,4.038h116.442c6.861,0,13.381-1.424,19.278-4.038H0z"/>
				<rect y="114.774" fill="#F2F2F2" width="155" height="2.393"/>
				<rect x="64.044" y="114.774" fill="#CCCBCA" width="26.91" height="1.192"/>
			</g>
		</g>
		<g>
			<rect y="98.807" fill="#474F59" width="35.57" height="35.565"/>
			<g>
				<g>
					<g>
						<rect x="3.658" y="102.346" fill="#232E38" width="12.42" height="4.391"/>
						<rect x="4.314" y="103.004" fill="#656A73" width="11.106" height="3.076"/>
						<g  a:adobe-knockout="true">
							<rect x="11.391" y="103.004" fill="#474F59"  a:adobe-knockout="false" width="0.658" height="3.076"/>
							<rect x="7.689" y="103.004" fill="#474F59"  a:adobe-knockout="false" width="0.656" height="3.076"/>
						</g>
					</g>
					<rect x="19.738" y="102.346" fill="#232E38" width="4.377" height="4.391"/>
					<rect x="27.773" y="102.346" fill="#232E38" width="4.379" height="4.391"/>
					<rect x="3.658" y="110.384" fill="#232E38" width="4.379" height="4.391"/>
					<rect x="11.695" y="110.384" fill="#232E38" width="4.383" height="4.391"/>
					<rect x="19.738" y="110.384" fill="#232E38" width="4.377" height="4.391"/>
					<rect x="27.773" y="110.384" fill="#232E38" width="4.379" height="4.391"/>
					<rect x="3.658" y="118.421" fill="#232E38" width="4.379" height="4.394"/>
					<rect x="11.695" y="118.421" fill="#232E38" width="4.383" height="4.394"/>
					<rect x="19.738" y="118.421" fill="#232E38" width="4.377" height="4.394"/>
					<rect x="3.658" y="126.462" fill="#232E38" width="4.379" height="4.392"/>
					<rect x="11.695" y="126.462" fill="#232E38" width="4.383" height="4.392"/>
					<rect x="19.738" y="126.462" fill="#232E38" width="4.377" height="4.392"/>
					<rect x="27.773" y="118.421" fill="#656A73" width="4.379" height="12.433"/>
				</g>
			</g>
			<rect y="82.981" fill="#353F49" width="35.57" height="15.825"/>
			<rect x="2.529" y="85.506" fill="#76D0DE" width="30.51" height="10.778"/>
			<rect x="3.846" y="86.821" fill="#ADECF7" width="27.878" height="8.148"/>
			<rect y="98.374" fill="#D9D8D7" width="35.57" height="0.877"/>
		</g>
		<g>
			<path fill-rule="evenodd" clip-rule="evenodd" fill="#F77B55" d="M152.349,20.289c0.676-0.001,1.356,0.262,1.874,0.775
				c0.515,0.518,0.776,1.193,0.776,1.878l-0.003,30.764c0.003,0.676-0.259,1.361-0.776,1.875c-0.517,0.523-1.195,0.772-1.874,0.772
				h-48.801c-0.678,0-1.356-0.252-1.875-0.771c-0.513-0.516-0.774-1.201-0.774-1.877l0.001-30.764c0-0.682,0.259-1.359,0.774-1.878
				c0.518-0.514,1.198-0.772,1.874-0.775H152.349z"/>
			<g>
				<rect x="107.633" y="49.475" fill-rule="evenodd" clip-rule="evenodd" fill="#FFFFFF" width="8.458" height="1.591"/>
				<rect x="118.354" y="49.475" fill-rule="evenodd" clip-rule="evenodd" fill="#FFFFFF" width="8.459" height="1.587"/>
				<rect x="129.079" y="49.477" fill-rule="evenodd" clip-rule="evenodd" fill="#FFFFFF" width="8.46" height="1.587"/>
				<rect x="139.802" y="49.475" fill-rule="evenodd" clip-rule="evenodd" fill="#FFFFFF" width="8.456" height="1.591"/>
			</g>
			<rect x="107.633" y="38.479" fill-rule="evenodd" clip-rule="evenodd" fill="#FFFFFF" width="19.18" height="5.729"/>
			<rect x="100.896" y="25.576" fill-rule="evenodd" clip-rule="evenodd" fill="#353F49" width="54.103" height="7.638"/>
			<circle fill-rule="evenodd" clip-rule="evenodd" fill="#FFFFFF" cx="138.424" cy="41.344" r="4.216"/>
			<circle fill-rule="evenodd" clip-rule="evenodd" fill="#353F49" cx="144.044" cy="41.344" r="4.215"/>
		</g>
	</g>
</g>
</svg>
