<?xml version="1.0" encoding="utf-8"?>
<!-- Generator: Adobe Illustrator 16.0.0, SVG Export Plug-In . SVG Version: 6.00 Build 0)  -->
<!DOCTYPE svg PUBLIC "-//W3C//DTD SVG 1.1//EN" "http://www.w3.org/Graphics/SVG/1.1/DTD/svg11.dtd" [
	<!ENTITY ns_flows "http://ns.adobe.com/Flows/1.0/">
	<!ENTITY ns_extend "http://ns.adobe.com/Extensibility/1.0/">
	<!ENTITY ns_ai "http://ns.adobe.com/AdobeIllustrator/10.0/">
	<!ENTITY ns_graphs "http://ns.adobe.com/Graphs/1.0/">
]>
<svg version="1.1" id="Layer_1" xmlns:x="&ns_extend;" xmlns:i="&ns_ai;" xmlns:graph="&ns_graphs;"
	 xmlns="http://www.w3.org/2000/svg" xmlns:xlink="http://www.w3.org/1999/xlink" xmlns:a="http://ns.adobe.com/AdobeSVGViewerExtensions/3.0/"
	 x="0px" y="0px" width="155px" height="155px" viewBox="0 0 155 155" enable-background="new 0 0 155 155" xml:space="preserve">
<g>
	<circle fill="#ADECF7" cx="77.5" cy="77.5" r="77.5"/>
	<g>
		<path fill="#FFFFFF" d="M86.829,37.824c-0.011-0.167-0.018-0.333-0.018-0.502c0-4.512,3.662-8.172,8.171-8.172
			c4.289,0,7.801,3.301,8.145,7.498c0.424-0.131,0.87-0.201,1.337-0.201c1.2,0,2.286,0.469,3.099,1.23
			c0.897-1.305,2.404-2.162,4.11-2.162c2.649,0,4.815,2.065,4.977,4.675c0.237-0.068,0.486-0.105,0.743-0.105
			c1.496,0,2.703,1.211,2.704,2.704c0,1.494-1.212,2.705-2.704,2.703H87.299c-2.127,0-3.85-1.723-3.85-3.85
			C83.449,39.677,84.925,38.054,86.829,37.824z"/>
		<g>
			<defs>
				<circle id="SVGID_1_" cx="77.5" cy="77.5" r="77.5"/>
			</defs>
			<clipPath id="SVGID_2_">
				<use xlink:href="#SVGID_1_"  overflow="visible"/>
			</clipPath>
			<g clip-path="url(#SVGID_2_)">
				<path fill="#474F59" d="M140.274,155.382c0,34.665-28.104,62.774-62.782,62.774c-34.666,0-62.767-28.109-62.767-62.774
					c0-34.669,28.101-62.77,62.767-62.77C112.171,92.612,140.274,120.713,140.274,155.382z"/>
				<path fill-rule="evenodd" clip-rule="evenodd" fill="#FFFFFF" d="M62.805,207.857c0.256,0.054,0.928-0.182,1.123-0.234
					c-0.465-0.376-1.476-0.422-2.07-0.775c0.047,0.018-1.89-1.154-1.469-0.186c0.102,0.23,0.465,0.019,0.633,0.133
					c-0.23,0.354-0.333,0.248-0.08,0.403c0-0.009-2.149-1.173,0.014-1.243c-1.504-1.345,0.088-0.93-0.376-1.779
					c-0.327-0.574,1.26-1.127,0.403-1.626c-0.397-0.235-0.855-0.19-1.271-0.487c-0.598-0.424-0.03-1.182,0.522-1.111
					c0.048,0,0.345-1.349,0.441-1.566c-0.155-0.065-1.263-1.438-0.994-1.729c0.319-0.345,1.769,0.894,2.121-0.021
					c0.139-0.327-0.503-1.216-0.451-1.583c0.656-0.063,4.932,0.097,4.209-1.867c-0.253-0.676-2.057-1.703-1.866-2.262
					c0.623,0.099,1.661,1,2.334,0.643c0.552-0.288,0.987,0.314,1.564-0.332c0.101-0.115,1.055-1.133,0.781-1.326
					c-0.287-0.006-0.447,0.158-0.479,0.504c-0.336-0.461,0.25-0.788,0.559-1.12c0.075,0.103,0.142,0.208,0.216,0.297
					c0.354-0.54,2.346-3.124,2.402-3.177c1.014-1.176,0.182-2.756,1.183-3.703c0.918-0.861,1.909-1.429,3.055-1.881
					c0.354-0.141,1.614-0.809,1.872-0.732c2.1,0.645,1.85-1.867,3.185-3c1.356-1.133,0.354-6.945,1.47-7.379
					c0.601-0.239,2.39-2.438,3.309-3.445c0.902-0.966,1.016-2.213,0.668-3.442c-0.531-1.88-1.066-0.81-2.42-1.624
					c-1.092-0.654-1.925-1.945-3.273-2.137c-0.791-0.105-1.619,0.137-2.407-0.102c-0.326-0.098-1.229-0.646-1.569-0.186
					c0.057-0.075-0.73,0.287-0.673,0.311c-0.091-0.049-0.013-1.023-0.271-1.266c-0.405-0.391-1.813-0.787-2.316-0.92
					c-1.168-0.302-1.456,1.088-1.768-0.566c-0.959-0.262-1.914-1.385-1.75-1.664c0.094-0.119-1.499-3.469-1.72-3.158
					c-0.02-1.124-3.513-2.521-4.398-1.99c-0.8,0.582-2.262-0.519-2.75-1.045c-0.559-0.602-0.541-1.238-1.469-1.623
					c-0.395-0.168-1.069-0.088-0.926-0.766c0.164-0.717-1.713-0.862-1.894-1.563c0.271,0.05,0.492-0.084,0.738-0.149
					c-0.729,0.253-1.616-0.278-2.335,0.31c-1.045,0.871-1.679-0.406-2.823-0.187c-1.45,0.279-0.477-0.251-1.394-0.813
					c0.382,0.239-1.702-0.951-1.21-0.908c-0.438-0.053,0.057,0.718-0.422,0.891c-0.761,0.279-1.415,0.447-0.925,1.362
					c0.832,1.665-1.743,0.881-0.531-0.252c0.224-0.195,0.284-2.362,0.523-2.282c-0.306-0.106-2.658,1.424-2.928,1.743
					c-0.759-1.208-2.028,2.999-2.457,3.03c-0.222-1.036-1.207-1.451-2.051-1.766c-0.746-0.283-1.479,1.469-2.426,0.509
					c-1.699-1.716-0.96-4.485-0.099-6.45c0.367-0.906-3.121-1.182-3.556-0.818c-0.854,0.703,0.135-1.434,0.124-1.371
					c0.098-0.862,0.296-1.434,0.677-1.42c0.223-0.508,1.522-2.84,1.395-3.119c-0.528-1.221-2.735,0.943-2.947,1.486
					c-0.212,0.531-0.641,0.832-0.845,1.309c-0.206,0.482-0.614-0.105-0.968,0.09c-0.951,0.539-2.31,0.258-2.104-1.125
					c0.218-1.666-0.419-4.953,1.456-6.096c0.565-0.354,0.655-2.008,1.311-2.592c0.085-0.074,1.978-1.167,1.786-1.389
					c0.284,0.296,1.761-0.301,1.961,0.088c0.137,0.318,1.014,0.655,1.331,0.473c-0.022,0.041,0.141-0.738,0.141-0.746
					c-0.024-0.01-0.609-0.084-0.575-0.271c0.06-0.255,1.832-0.084,1.89-0.075c0.831,0.058,1.465,0.757,2.085,0.336
					c0.964-0.658,0.37,3.654,0.756,4.048c0.211,0.235,0.065,0.753,0.469,0.713c0.552-0.062,0.721-5.601,2.154-6.751
					c1.044-0.84,2.176-1.594,3.327-2.221c0.374-0.19,1.326-0.655,1.526-1.008c-0.046-0.178-0.227-0.395-0.418-0.209
					c-0.056-0.336,0.521-0.129,0.621-0.482c0.105-0.357-0.297-0.473-0.253-0.596c-0.014,0.03,0.358-0.73,0.234-0.625
					c0.009,0.018,0.019,0.053,0.022,0.08c0.584,0.093-0.124-0.544-0.15-0.633c0.752,0.389,0.438-0.828,1.172-0.889
					c-0.526,0.221-0.424,0.809-0.353,1.172c0.146,0.783,0.849-1.098,0.764-1.021c0.705-0.293,1.805-0.881,2.554-1.416
					c-0.174-0.07-0.363,0.07-0.57-0.084c0.774-0.279,1.638-0.187,2.386-0.566c-0.047-0.783,0.427-1.597,1.299-1.746
					c1.34-0.223,2.912-1.041,4.246-1.496c-0.199,0.464,0.121,0.11,0.482,0.283c-0.433-1.137-2.813,2.105-1.681,1.441
					c0.952-0.557,4.173-1.053,4.614-1.982c-0.015-0.049-0.216-0.668-0.213-0.668c-0.792,0-0.859,0.979-1.837,0.979
					c-1.777-0.027-0.708-1.115-1.073-1.606c-0.313,0.075-0.585-0.017-0.802-0.251c0.182-0.045,2.376-0.549,1.213-0.814
					c-1.881-0.398-3.123,1.693-4.672,1.642c1.15-0.704,2.721-2.208,4.123-2.394c1.494-0.203,3.56,0.525,4.879-0.398
					c1.158-0.814,1.971-0.213,2.628-1.535c0.204-0.358-0.854-0.81-1.127-0.871c0.123-0.133,0.357,0,0.438-0.222
					c-1.756-0.782-2.124-1.569-2.331-3.597c-0.898,0.65-3.902,2.048-2.298-0.221c-0.578-0.252-2.401-1.773-3.099-0.721
					c-0.329,0.469-0.842,1.261-1.372,1.503c-1.195,0.544-0.134,0.438-0.535,1.239c-0.677,1.318-2.302,1.133-3.075,2.287
					c-0.482,0.726-0.638,1.234-1.399,1.574c-0.658,0.293-0.905-0.486-0.587-1.105c0.234,0.257,0.45,0.296,0.641,0.105
					c0.055-0.277-0.354-0.146-0.478-0.26c0.235-0.408,0.521-0.779,0.85-1.119c-0.11-0.066-1.796-0.332-1.733-0.774
					c0.105-0.92-1.048-0.415-1.252-0.69c0.898-1.133,0.907-1.664,2.668-2.548c0.61-0.31,3.999-2.04,4.625-1.605
					c-0.084,0.384-0.503,0.306-0.725,0.509c0.488,0.123,1.902,0.277,2.386-0.062c-0.107-0.085-0.677-1.032-0.38-1.253
					c-0.051,0.039,0.972,0.018,1.048-0.004c0.548-0.134,1.146-0.199,1.455-0.752c0.269-0.492,2.062-1.129,2.486-0.887
					c2.34,1.328-3.182,2.74-3.224,2.585c0.104,0.39,1.597-0.265,1.964,0.761c0.091,0.248,1.786,0.792,1.954,0.553
					c0.095-0.115-0.482-0.734-0.513-0.885c1.779,0.858,1.681,0.416,1.384-0.773c-0.273-1.137,1.04,0.07,1.119,0.105
					c0.294,0.156,1.496-0.535,1.673-0.782c-0.43-0.332-1.186-0.323-1.56-0.734c-0.355-0.351,0.934-0.435,0.48-0.806
					c-0.531-0.447-1.394-0.328-1.1-1.195c-0.299-0.083-0.596-0.048-0.869,0.111c0.078,0.164,0.256,0.039,0.323,0.133
					c-0.292,0.178-0.618,0.203-0.955,0.195c0.105-0.151,0.397-0.151,0.407-0.443c-0.917-0.105-1.404,0.443-2.203,0.682
					c0.226-0.322,0.611-0.424,0.889-0.672c-0.881,0.109-1.714,0.438-2.402,1.008c0.105,0.098,0.208,0.199,0.273,0.323
					c-0.667,0.598-1.566,0.774-2.349,1.138c0.13-0.532,0.698-0.398,0.89-0.793c-0.288,0.005-0.566,0.063-0.828,0.189
					c0.328-0.043,1.323-1.029,1.55-1.282c-1.436-0.159-2.032,1.681-3.375,1.421c0.278-0.323,0.848-0.164,1.037-0.673
					c-0.5,0.062-2.388,1.34-2.698,0.673c-0.018-0.04,3.456-1.421,3.819-1.92c-0.23-0.031-0.492,0.217-0.709-0.066
					c0.169-0.195,0.456-0.205,0.646-0.416c-1.134-0.01-4.524,1.371-4.265,2.168c-0.441,0.354-0.911,0.451-1.446,0.226
					c0.209-0.327,0.946-0.331,0.351-0.81c-1.099,0.406-2.159,0.85-3.231,1.313c-2.432,1.09-4.834,2.367-7.109,3.771
					c-3.758,2.321-6.858,5.069-9.957,8.179c-1.65,1.674-7.923,8.993-7.904,10.521c0.021,1.131-0.641,2.123-1.067,3.14
					c-0.344,0.831-0.37,1.995-0.792,2.759c-0.906,1.625-0.488,3.501-0.9,5.363c0.514-0.38,1.577-8.928,2.498-8.609
					c0.182,0.063-0.569,3.549-0.76,3.982c-0.775,1.791,0.248,3.981-0.267,5.856c-0.052,0.182-0.313,1.138-0.319,1.323
					c-0.864,0.664,0.231,1.653,0.224,2.385c0,0.433,2.206,2.362,2.627,2.609c0.929,0.553,1.114-0.434,1.945-0.247
					c0.762,0.159,0.979,1.53,1.38,2.114c0.55,0.81,2.605,0.725,2.953,1.105c0.238,0.288,0.047,1.867,0.976,2.088
					c-0.009-0.105-0.017-0.672,0.111-0.752c0.288-0.172,0.889,0.876,0.685,1.066c-0.3,0.066-0.561-0.035-0.79-0.314
					c0,0.138-0.147,2.194,0.451,1.792c0.018-0.124,0.039-0.257,0.062-0.382c0.778,0.342,0.725,1.492,1.283,1.65
					c0.761,0.213,1.344,1.188,1.915,1.452c0.519,0.265,0.376-1.806,1.366-1.907c0.793-0.07,1.229,1.996,1.51,2.491
					c0.41,0.729-0.56,2.478-0.023,3.039c0.547,0.57-1.366,1.954-1.451,2.535c-0.062,0.446-1.03,0.862-0.998,1.026
					c0.073,0.495-0.212,1.146-0.385,1.605c-0.487,1.287-0.248,1.398,0.587,2c0.027,0.021-1.548,3.141-0.645,3.938
					c1.434,1.18,3.316,4.074,3.772,5.896c0.933,2.504,2.358,4.035,4.743,5.277c1.945,1.018,3.314,2.756,3.314,5.087
					c0.064,1.377-0.13,3.093,0.449,4.39c0.408,0.896-0.367,2.37,0.218,3.189c0.37,0.504-0.121,0.787,0.105,1.266
					c0.23,0.504,0.754,1.344,0.743,1.938c-0.015,0.982-0.004,2.148,0.068,3.122c0.012,0.336-0.295,0.902-0.129,1.114
					c0.231,0.271,1.546,3.527,1.546,4.479c0,0.232,1.021-0.059,0.103-0.992c1.094-0.609,0.872,1.965,0.947,1.987
					c-0.992-0.333-0.35-0.066-0.274,1.198c0.048,0.748-0.196,0.389,0.421,0.531c0.963,0.217,0,0.867,0.362,1.389
					c0.733,1.053,1.85,2.025,2.614,2.835C59.187,207.756,61.322,207.552,62.805,207.857
					C63.007,207.897,62.529,207.803,62.805,207.857z M66.895,105.543c-0.348,0.307-0.719,0.367-1.112,0.479
					C66.059,105.609,66.477,105.672,66.895,105.543z M63.627,105.26c0.256-0.035,0.456,0.035,0.59,0.217
					c0.013,0.098-1.337,0.16-1.541,0.51C62.849,105.394,63.342,105.49,63.627,105.26C63.766,105.434,63.342,105.49,63.627,105.26z
					 M60.335,107.584C60.622,107.658,59.93,107.525,60.335,107.584C60.354,107.592,60.264,107.574,60.335,107.584z M58.531,104.146
					c0.123-0.143,0.22-0.117,0.288,0.064C58.69,104.358,58.594,104.332,58.531,104.146
					C58.545,104.066,58.522,104.229,58.531,104.146z M56.738,109.512C56.229,109.477,57.275,109.524,56.738,109.512
					C56.673,109.506,56.813,109.516,56.738,109.512z M57.275,107.428c-1.752,1.637-0.391,0.022-0.898,0.531
					c0.012,0.027,0,0.045-0.027,0.053C56.208,107.857,57.236,107.436,57.275,107.428C57.049,107.641,56.97,107.484,57.275,107.428z
					 M56.624,105.496c-0.31,0.365-0.31,0.365-0.753,0.277C56.105,105.623,56.412,105.68,56.624,105.496z M64.428,99.333
					c-0.11,0.004-0.217,0.004-0.398,0.004C64.592,98.868,64.486,99.333,64.428,99.333C64.317,99.337,64.513,99.333,64.428,99.333z
					 M65.699,98.496c-0.2,0.217-0.47,0.093-0.712,0.199C65.237,98.199,65.286,98.191,65.699,98.496z M58.62,99.067
					c0.146-0.133,0.322-0.199,0.516-0.187C59.308,99.129,58.072,99.27,58.62,99.067C58.69,98.938,58.55,99.098,58.62,99.067z
					 M58.301,98.713c0.202,0.09,0.186,0.178-0.053,0.283C58.075,98.891,58.102,98.803,58.301,98.713
					C58.375,98.713,58.208,98.727,58.301,98.713z M49.151,114.33c0.015-0.006-2.742,1.096-2.53,0.414
					c-0.07,0.217,0.942-0.777,0.73-0.681c0.225-0.097,2.074-0.212,2.61-0.203C49.679,114.135,49.419,114.236,49.151,114.33
					C48.532,114.559,49.419,114.236,49.151,114.33z M51.346,112.971c2.274,0.217-1.344,0.908-1.733,0.5
					C50.125,113.028,50.728,112.9,51.346,112.971C51.532,112.992,50.728,112.9,51.346,112.971z M50.974,98.838
					c0.606-0.391,1.257-0.682,2.055-0.858c-0.58,0.481-1.363,0.681-2.07,0.876L50.974,98.838z M51.104,111.117
					c-0.106,0.102-0.2,0.098-0.295,0C50.949,111.064,51.08,111.02,51.104,111.117C51.143,111.215,51.08,111.02,51.104,111.117z
					 M50.431,112.48C50.383,112.48,50.216,112.431,50.431,112.48C50.445,112.48,50.363,112.462,50.431,112.48z M49.768,111.316
					c0.821,0.39,0.349,1.668-0.368,0.672c-0.018,0.594-1.063,1.598-1.614,1.721c0.217-0.238,0.287-0.494,0.221-0.773
					c-0.176-0.146-0.517,0.252-0.712,0.252c0.089,0.35,1.491-2.415,0.307-1.609c-0.435,0.322-3.274,3.344-3.438,3.18
					c-0.265-0.27,1.258-2.49,1.367-2.574C46.502,111.383,48.532,110.742,49.768,111.316z M48.184,100.76
					c0.119-0.069,1.022-0.623,1.141-0.494c0.298,0.362-1.46,0.814-1.551,0.823C47.879,100.872,48.051,100.836,48.184,100.76
					C48.502,100.58,48.051,100.836,48.184,100.76z M48.373,108.167c-0.004,0.048-0.358,0.738-0.588,0.46
					C47.613,108.441,48.312,107.857,48.373,108.167C48.337,108.348,48.354,108.082,48.373,108.167z M46.377,102.447
					c0.111,0,1.58-0.92,1.629-0.539C48.028,102.014,46.211,102.478,46.377,102.447z M45.976,103.969
					c-0.098,0.168-0.182,0.257-0.386,0.252C45.67,104.045,45.794,104.021,45.976,103.969z M44.949,107.525
					c0.203-0.16,0.688-0.93,0.447-1.234c0.129,0.163-0.885-0.109-0.421-0.287c0.187-0.059,1.345-0.689,1.526-0.496
					c0.331,0.342-1.438,2.199-1.792,2.358C44.742,107.676,44.85,107.596,44.949,107.525
					C45.238,107.299,44.85,107.596,44.949,107.525z M45.953,109.861c1.275-0.402,1.731-1.119,2.499-0.146
					c0.284,0.358,0.237,1.293-0.446,1.076c0.188,0.061-2.061-0.154-1.649-0.399c-0.45,0.283-1.323,0.478-1.854,0.245
					C44.993,110.356,45.431,110.038,45.953,109.861C46.269,109.764,45.431,110.038,45.953,109.861z M44.188,107.508
					c0.117,0.296,0.026,0.451-0.316,0.504C44.002,107.804,44.092,107.648,44.188,107.508z M26.167,134.9
					C25.589,134.887,26.612,134.887,26.167,134.9C26.097,134.9,26.219,134.9,26.167,134.9z M33.434,140.119
					C33.275,140.178,33.891,140.023,33.434,140.119C33.412,140.138,33.515,140.107,33.434,140.119z M51.19,145.99
					C50.873,145.941,51.542,146.021,51.19,145.99C51.152,145.99,51.232,145.996,51.19,145.99z M54.094,198.01
					C53.594,197.926,54.355,197.615,54.094,198.01C53.968,197.992,54.106,197.992,54.094,198.01z M55.379,171.989
					C55.199,171.807,55.486,172.096,55.379,171.989C55.363,171.967,55.415,172.016,55.379,171.989z M55.58,188.203
					C55.272,188.309,55.933,188.074,55.58,188.203C55.5,188.229,55.633,188.18,55.58,188.203z M57.294,205.672
					c-0.227-0.129-0.227-0.217-0.007-0.252C57.534,205.521,57.539,205.609,57.294,205.672
					C57.199,205.663,57.381,205.693,57.294,205.672z M59.557,206.662c-0.23-0.047-0.207-0.141,0.07-0.273
					C59.822,206.468,59.799,206.566,59.557,206.662C59.459,206.662,59.623,206.637,59.557,206.662z M54.763,200.209
					c-0.023,0.014-0.054,0.021-0.079,0.026C54.757,200.178,54.779,200.169,54.763,200.209z M60.389,95.736c0,0-0.011,0-0.017,0
					c0.006-0.006,0.006-0.01,0.017-0.01V95.736z M39.067,105.844c0,0-0.015,0.006-0.019,0.006L39.067,105.844z M39.656,105.345
					h-0.008H39.656z M139.242,144.137h0.009c-1.229-4.516-2.144-8.994-4.017-13.377c-2.225-5.203-5.148-10.109-8.682-14.528
					c-3.333-4.177-7.198-7.919-11.472-11.112c-2.084-1.559-4.252-2.979-6.508-4.266c-1.079-0.619-2.177-1.207-3.296-1.765
					c-0.493-0.229-2.198-0.677-2.457-1.098c0.019,0.19,1.001,0.69,1.129,0.828c-0.663-0.177-2.418-0.925-2.437-1.04
					c0.03-0.074,0.177,0,0.162-0.132c-0.995-0.633-4.7-1.995-5.44-0.987c0.158-0.194,2.553,2.57,2.623,3.061
					c0.152,1.085,1.836,2.223,2.908,2.575c1.503,0.501,0.379-0.168,1.009-0.521c0.402-0.198,0.778,0.681,1.161,0.481
					c-0.004-0.01,0-0.021,0.014-0.021c-0.105-0.213-0.226-0.416-0.34-0.619c-0.114,0,2.707,2.906,3.064,2.273
					c-0.331-0.787-0.84-1.682-1.641-2.419c-0.709-0.664-1.822-0.726-2.588-1.39c-0.383-0.341-1.817-1.385-1.973-1.871
					c1.894,0.062,4.07,4.064,5.977,2.518c-0.269-0.178-0.524-0.377-0.777-0.585c0.353,0.103,1.937,0.606,1.397,1.278
					c-1.5-0.265,1.287,1.266,1.336,1.434c-0.279-0.018-0.472-0.234-0.722-0.256c0.107,0.525,1.598,1.066,1.703,1.964
					c-0.902,0.142-0.508-0.544-1.087,0.186c-0.191,0.234-1.001,0.159-1.439,0.195c-1.034,0.088-2.193-1.682-2.955-2.218
					c0.324,0.983,0.864,1.451,1.96,2.143c0.535,0.305-0.746,0.438-0.728,0.88c0.038,0,0.345,0.159,0.337,0.239
					c0,0.057-0.291-0.201-0.337-0.239c0.104-0.067-0.184,1.729-0.206,1.703c0.854,0.991-1.137,0.704-1.186,0.734
					c0.159,0.226,0.474,0.345,0.549,0.669c-0.584,0.038-1.047-0.049-1.615,0.158c0.815,0.243,5.314,2.316,4.335,3.885
					c-0.317,0.508-3.364-0.129-3.929-0.15c-1.179-0.08-0.083,1.123-0.051,1.264c0.185,0.899,0.884,1.292,0.827,2.342
					c-0.05,0.734,0.7,0.76,0.937,1.384c0.201,0.544,0.08,0.593,0.656,0.673c1.002,0.123,1.024-0.026,1.871,0.637
					c0.597,0.465,0.831-0.443,1.547-0.469c1.784-0.08,0.261-0.434,1.116-0.678c1.061-0.296-0.292-1.95-0.231-2.27
					c0.08-0.441-0.065-0.925,0.521-1.092c0.901-0.234-0.248-1.178-0.309-1.429c-0.173-0.743,2.496,0.632,2.178-1.247
					c1.529,0.477,3.108,1.875,4.529,2.67c0.836,0.502,1.67,0.979,2.283,1.771c0.725,0.945-1.045,0.561-1.155,0.836
					c-0.107,0.297,1.562,1.048,1.827,1.035c0.036-0.169-0.193-1.128-0.227-1.297c-0.078-0.663-1.044-1.322-0.977-1.857
					c0.31,0.031,0.589,0.15,0.822,0.346c-0.894-1.111-2.346-1.223-3.371-2.035c-0.632-0.508-1.397-0.916-2.004-1.434
					c-0.008-0.01-1.092-1.39-0.332-1.129c1.195,0.42,2.505,1.633,3.725,2.27c0.971,0.509,1.211,0.823,1.925,1.654
					c0.28,0.324,1.78,2.063,2.11,2.115c-0.013-0.01,1.221,1.088,1.711,1.252c-0.217-0.5-0.41-1.137-0.664-1.527
					c-0.334-0.548-1.729-0.862-1.729-1.676c0.314,0.027,0.352-0.306,1.026-0.277c-0.364-0.01,0.443-0.532,0.391-0.457
					c-1.298-0.738-3.053-2.916-3.523-4.383c0.354,0.018,0.55,0.494,0.938,0.247c-0.122-0.247-0.159-0.514-0.122-0.784
					c0.107,0.111,1.327,1.173,1.089,1.381c-0.346-0.009-0.639-0.154-0.876-0.424c0.163,0.618,0.785,0.633,1.039,1.057
					c0.023-0.168-0.092-0.311,0.049-0.5c1.087,0.451,3.267,2.154,3.564,3.357c-0.47,0.049-1.38-0.951-1.69-0.707
					c-0.101,0.248-0.087,0.486,0.05,0.725c-0.141,0.004-0.27,0.031-0.395,0.103c0.169,0.138,0.266,0.319,0.296,0.534
					c-0.176,0.053-0.354,0.111-0.535,0.156c0.152,0.605,3.337,3.636,3.557,3.33c0.066-0.102-0.132-0.412-0.077-0.459
					c0.171-0.191,0.672,0.686,0.927,0.512c0.209-0.132-0.206-0.41,0.028-0.526c0.486-0.246,2.394,3.49,2.623,3.928
					c0.921,1.735,0.313,0.678-0.385,0.917c-0.114,0.178-0.183,0.362-0.2,0.575c-1.114-0.257-2.33-0.894-3.243-1.544
					c-1.432-1.035,0.471,2.827-0.363,2.34c-0.485-0.275-0.772-0.689-1.388-0.743c-0.867-0.083-1.114-1.019-1.919-1.291
					c-0.659-0.222-3.252-0.456-2.916-1.646c0.273-1.017-1.034-1.858-1.47-2.247c-0.226-0.203-3.103,0.172-3.569,0.314
					c-0.796,0.256-2.043,0.509-2.494,1.252c-0.762,1.381-2.521-0.438-3.229-0.152c-0.377,0.147-0.013,1.285-0.21,1.647
					c-0.276,0.54-0.986,0.578-1.16,1.217c-0.311,1.181,0.581,2.149,0.174,3.233c-0.327,0.857-1.994,1.229-2.017,1.938
					c-0.008,0.381-0.07,0.801-0.43,1c-0.761,0.434,0.023,1.424-0.454,1.924c-2.549,2.594,0.822,5.141,0.242,8
					c-0.322,1.613-0.518,1.945,0.182,3.33c0.156,0.354,0.036,2.861,1.31,1.85c0.159,1.463,2.044,1.76,2.372,3.153
					c0.405,1.655,2.025,2.376,3.281,3.362c0.506,0.394,0.93,0.906,1.518,1.203c1.027,0.526,1.725-0.283,2.721-0.562
					c0.889-0.261,1.813-0.164,2.658,0.229c0.488,0.229,4.085-2.318,5.059-1.836c0.715,0.354,0.76,1.23,1.084,1.854
					c0.467,0.881,1.462-0.273,2.126,0.018c1.173,0.532,1.531,4.849,0.531,5.645c-0.753,0.551,0.96,2.907,1.194,3.385
					c0.677,1.34,1.291,3.668,1.076,5.149c-0.166,1.199,0.157,3.097-0.529,4.153c-0.679,1.059-1.078,2.178-1.626,3.376
					c-1.426,3.075-0.058,6.565-1.282,9.764c-0.736,1.632-0.607,3.38-1.005,5.093c-0.266,1.1-1.603,2.693-1.085,3.844
					c0.805-0.722,2.001-0.629,2.912-1.084c1.849-0.916,2.737-3.063,4.087-4.49c0.718-0.752,1.168-1.709,1.594-2.646
					c0.406-0.88,1.229-1.452,1.608-2.318c0.944-2.194,1.807-4.38,2.759-6.569c1.985-4.734,2.313-9.271,3.011-14.342
					C140.229,154.59,140.246,149.485,139.242,144.137z M134.5,131.662c-0.247-0.629-3.592-5.539-3.198-5.805
					c0.438-0.283,7.593,12.378,6.822,14.333C137.022,137.307,135.725,134.502,134.5,131.662
					C134.492,131.635,134.758,132.246,134.5,131.662z M137.572,154.06c-0.139-0.354,0.052-0.655,0.145-1.065
					C137.867,153.428,137.633,153.729,137.572,154.06z M137.2,156.047c-0.014-0.218-0.032-0.387,0.119-0.545
					C137.42,155.714,137.322,155.859,137.2,156.047z M136.009,172.289c-0.128,0.053-0.256,0.094-0.389,0.139
					c-0.229,0,0.429-0.318,0.46-0.332C136.044,172.201,136.044,172.246,136.009,172.289
					C135.912,172.432,136.044,172.246,136.009,172.289z M136.195,165.689c-0.014-0.592,0.014-0.629,0.61-1.008
					C136.687,165.105,136.261,165.3,136.195,165.689z M136.868,162.619c-0.009-1.102-0.049-2.393,0.193-3.459
					c0.046,1.862,0.139,3.752,0.081,5.623C136.846,164.393,136.868,163.093,136.868,162.619
					C136.862,162.221,136.868,163,136.868,162.619z M137.844,166.132c-0.016,1.009-0.158,3.747-0.821,4.53
					c0.071-1.699,0.691-3.238,0.722-4.928C137.894,165.893,137.85,166.021,137.844,166.132
					C137.844,166.252,137.85,166.021,137.844,166.132z M138.633,155.877c-0.288,1.199-0.01,1.575-0.726,2.243
					c-0.006-0.889-0.326-2.601,0.589-3.128C138.612,155.285,138.727,155.52,138.633,155.877
					C138.515,156.373,138.727,155.52,138.633,155.877z M99.229,214.174c0.088,0.178-7.893,2.434-8.71,2.606
					c-3.322,0.703-6.685,1.138-10.082,1.305c-6.455,0.317-13.201-0.27-19.398-2.157c0.8,0.086,1.766,0.504,2.574,0.37
					c-0.773-0.478-1.725-0.31-2.419-0.92c2.584,0.429,5.056,0.23,7.434,0.535c-0.254-0.332-2.418-0.854-2.4-1.075
					c0.302-0.026,1.975-0.074,2.035-0.129c0.779-0.605-1.253-0.535-1.062-0.969c0.054-0.113,0.61,0.07,0.811-0.186
					c0.305-0.411,0-0.623,0.115-0.832c0.088-0.176,3.215-0.725,3.542-0.578c-0.366,0.221-0.787-0.04-0.632,0.57
					c-0.313-0.045-1.287-0.018-1.34,0.412c0.018-0.107,1.061,1.34,1.096,1.4c0.355,0.572,1.61,0.916,1.721,1.59
					c0.204,1.137,6.146,1.025,7.041,0.924c2.214-0.248,4.297-1.043,6.484-1.424c1.3-0.231,2.596-0.598,3.914-0.73
					c0.624-0.058,2.651-0.766,3.128-0.605C93.382,215.342,98.134,213.963,99.229,214.174
					C99.244,214.201,99.059,214.145,99.229,214.174z M135.387,179.527c0.251-0.643,0.459-1.311,0.773-1.934
					C135.961,178.268,135.678,178.895,135.387,179.527z M136.422,176.926c0.029-0.078,0.064-0.159,0.096-0.234
					C136.527,176.784,136.46,176.855,136.422,176.926z M67.771,94.749c-0.335-0.058-0.693-0.018-1.049-0.071
					c0.183-0.167,1.24-0.198,0.775-0.494c1.455-0.891,4.481-1.071,6.143-0.867c1.873,0.23,3.734-0.35,5.58-0.057
					c0.748,0.118,1.393,0.136,2.136,0.185c0.647,0.075-0.087,0.739,0.647,0.845c0.433,0.058,1.301,1.044,1.692,0.832
					c-0.016,0.686-0.321,0.203-0.106,0.85c0.05,0.141,0.826,0.574,0.789,0.632c-0.075,0.103-2.158-0.054-2.067-0.026
					c-0.159-0.027,0.037,0.332,0.174,0.274c0.411,0.11,1.313-0.032,1.769,0.009c-1.047,0.951-2.617,0.836-3.794,1.602
					c-0.712,0.465-1.792,0.42-2.571,0.709c0,0.803-0.615,1.781-1.137,2.604c-0.382,0.571-3.035-0.743-3.309-1.088
					c-0.576-0.69-1.898-2.522-0.464-3.088c1.737-0.69,0.01-0.124-0.507-0.501c0.418-0.579,0.876-0.385,1.54-0.287
					c-0.334-0.469-0.753-0.583-1.264-0.34c-0.169-0.5,0.717-0.951-0.054-1.486c-0.34-0.23-2.176,0.039-2.229-0.283
					c-0.114-0.801,2.238-0.377,2.646-1.031C71.36,93.299,69.476,95.016,67.771,94.749C67.437,94.691,68.087,94.793,67.771,94.749z
					 M100.817,106.72c0.278-0.035-0.357-0.935-0.521-1.11c0.193,0.018,0.366,0.035,0.55-0.084c-0.146-0.406-1.975-1.464-2.098-1.385
					c-0.699,0.43-1.561-1.499-1.646-1.764c1.182-0.165,1.921,1.1,2.99,1.622c0.907,0.438,4.182,2.005,4.279,2.991
					c0.07,0.494-2.487,0.287-2.858,0.872c-0.292-0.722,0.636-0.713,0.606-0.942C102.092,106.747,100.951,106.702,100.817,106.72
					C100.748,106.729,101.207,106.658,100.817,106.72z M67.373,107.641c-0.172,0.128-2.402,2.233-2.344,2.433
					c0.049,0.19,2.305,0.054,2.694,0.274c-0.022,0.256-0.333,0.123-0.382,0.35c0.294,0,1.204-0.57,1.354-0.398
					c0.018,0.137-0.008,0.283-0.068,0.416c0.993,0.986,0.896-1.16,0.944-1.27c-0.691-0.098,0.159-1.088-1.026-0.664
					c0.082-0.031-1.283-0.406-1.212-0.322c-0.109-0.111,0.965-1.041,1.044-1.164C67.751,107.141,67.664,107.418,67.373,107.641
					C66.989,107.915,67.448,107.578,67.373,107.641z M69.559,109.968C69.652,110.051,69.409,110.051,69.559,109.968
					C69.572,109.985,69.538,109.98,69.559,109.968z M69.059,109.914c0.063-0.075,0.438-0.234,0.207-0.018
					C69.188,110.042,68.855,110.145,69.059,109.914C69.082,109.883,69.014,109.968,69.059,109.914z M67.482,107.354l0.016-0.006
					c0,0,0,0.014,0.01,0.023C67.498,107.361,67.498,107.361,67.482,107.354z M65.483,109.371c0.063,0,0.107,0,0.156,0.039
					C65.582,109.41,65.335,109.4,65.483,109.371C65.547,109.371,65.449,109.375,65.483,109.371z M43.702,135.555
					c-0.61,0.058,0.396-0.482,0.317-0.678c-0.415-0.955-3.262-1.172-3.524-1.928c0.124-0.049,0.207-0.138,0.248-0.262
					c-0.979-0.398-1.478,0.797-2.364,0.721c1.837-3.102,6.372,0.447,8.199,1.881C45.623,135.408,44.664,135.418,43.702,135.555
					C43.622,135.555,44.231,135.475,43.702,135.555z M46.075,137.205c-0.463-0.199,1.501-0.182,1.768-0.291
					c-0.39-0.599-0.04-0.922-0.791-1.146c0.686-0.846,2.972,0.141,3.693,0.451c-0.054,0.109-0.2,0.008-0.271,0.141
					c0.058,0.048,1.566,1.291,0.55,0.877c-1.11-0.475-1.725,0.186-2.503,0.629C47.899,136.98,46.892,137.594,46.075,137.205
					C45.985,137.165,46.26,137.289,46.075,137.205z M99.221,105.451c1.07,1.105-0.592,1.95-1.335,1.242
					c-0.373-0.376-0.146-1.264-0.992-1.53c0.222-0.066,0.448-0.138,0.668-0.221C96.98,103.578,98.946,105.163,99.221,105.451
					C99.46,105.702,99.144,105.365,99.221,105.451z M85.321,98.739c-0.062-0.222,1.54-0.118,1.796-0.173
					c0.43-0.07,3.619,0.253,2.496,0.763c-0.867,0.385-2.139,0.835-2.957,0.074C86.454,99.23,85.335,98.784,85.321,98.739
					C85.281,98.594,85.383,98.957,85.321,98.739z M114.381,114.515c0.372,0,1.288,1.434,1.133,1.665
					c-0.431,0.67-1.145-1.037-1.58-1.301C114.09,114.771,114.242,114.656,114.381,114.515z M64.712,95.188
					c1.087-0.823,1.341-0.354,2.688-0.221C66.972,95.359,65.932,95.445,64.712,95.188C65.018,94.957,65.932,95.445,64.712,95.188z
					 M88.674,94.25c-0.801-0.223-1.637-0.254-2.416-0.563c0.928-0.105,2.052,0.248,2.705,0.438
					C89.178,94.192,88.621,94.232,88.674,94.25C87.873,94.027,88.75,94.268,88.674,94.25z M86.258,93.688
					c-0.086,0.014-0.176,0.019-0.265,0.026C86.082,93.634,86.172,93.621,86.258,93.688C86.172,93.701,86.224,93.674,86.258,93.688z
					 M43.955,137.253c0.171,0.019,0.271,0.106,0.297,0.274c-0.108,0.451-1.521-0.186-1.668-0.385
					C43.074,136.859,43.521,137.023,43.955,137.253z M54.059,137.223C53.313,139.044,51.434,135.943,54.059,137.223
					C53.947,137.484,53.616,137.006,54.059,137.223z M56.973,146.102L56.973,146.102c0.019-0.053,0.072-0.076,0.138-0.08
					C57.07,146.049,57.03,146.066,56.973,146.102z M57.236,146.049c-0.037-0.015,0.198-0.748,0.675-0.788
					C58.479,145.619,57.514,146.084,57.236,146.049C57.185,146.034,57.854,146.119,57.236,146.049z M63.175,94.793
					c-0.499,0.336-1.103,0.115-1.618,0.311C62.272,94.604,62.609,94.643,63.175,94.793C62.676,95.129,63.088,94.766,63.175,94.793z
					 M44.313,131.6c-0.198-0.748-0.486-0.76,0.019-1.416C44.524,130.883,44.524,131.308,44.313,131.6
					C44.231,131.295,44.524,131.308,44.313,131.6z M30.705,157.555c-0.014,0.278-0.146,0.385-0.396,0.283
					c-0.095-0.076-0.143-0.982,0.026-1.174C30.453,156.957,30.586,157.25,30.705,157.555
					C30.748,157.678,30.586,157.25,30.705,157.555z M62.166,108.459c0.585-0.014,1.053,0.164,1.57,0.553
					C63.047,109.141,62.609,108.875,62.166,108.459z M114.146,114.262l0.01,0.006c-0.169-0.053-1.191-0.672-0.77-1.008
					C113.678,113.045,114.111,114.156,114.146,114.262z M124.694,119.5c-0.2-0.203-0.62-0.066-0.724-0.478
					c0.352,0.183,0.745,0.093,1.088,0.362C124.928,119.487,124.801,119.611,124.694,119.5
					C124.494,119.297,124.801,119.611,124.694,119.5z M64.063,95.143c-0.104-0.149-0.284-0.052-0.389-0.186
					c0.289-0.322,0.691-0.208,1.046-0.305C64.701,94.691,64.285,95.465,64.063,95.143C63.958,94.993,64.123,95.235,64.063,95.143z
					 M62.304,95.528c-0.465,0.354-0.941,0.699-1.592,0.641C61.146,95.713,61.738,95.646,62.304,95.528z M62.141,111.069
					c0.124,0.026,0.262-0.005,0.469-0.022c-0.623,0.751-1.337-0.305-1.194-0.344C61.309,110.729,62.102,111.064,62.141,111.069
					C62.265,111.096,61.901,111.033,62.141,111.069z M62.402,95.834c0.429-0.35,0.939-0.412,1.469-0.369
					C63.419,95.73,62.937,95.883,62.402,95.834z M111.523,116.02c-0.496-0.066,0.924-0.514,0.411,0.137
					C111.79,116.143,111.643,116.1,111.523,116.02C111.438,116.01,111.669,116.033,111.523,116.02z M127.202,119.611
					c-0.31-0.15-0.422-0.35-0.332-0.699C127.117,119.098,127.225,119.293,127.202,119.611z M63.477,98.111
					c0.187-0.318,0.372-0.402,0.99-0.389C64.158,98.063,63.836,98.125,63.477,98.111z M58.942,100.217
					c-0.354,0.195-0.624,0.338-1.005,0.311C58.208,100.217,58.522,100.223,58.942,100.217z M96.625,102.805
					c-0.072,0.138-0.009,0.227,0.091,0.322c-0.108-0.048-0.547-0.592-0.212-0.68C96.659,102.518,96.7,102.637,96.625,102.805
					C96.553,102.942,96.67,102.725,96.625,102.805z M39.846,133.547c-0.02,0.221-0.12,0.322-0.321,0.317
					C39.424,133.683,39.751,133.161,39.846,133.547C39.881,133.67,39.822,133.471,39.846,133.547z M60.982,198.74
					c0.164,0.063,0.255,0.186,0.278,0.363C61.261,199.651,60.271,198.807,60.982,198.74
					C61.088,198.727,60.817,198.754,60.982,198.74z M59.557,100.54c-0.119,0.177-0.279,0.266-0.548,0.358
					C59.145,100.607,59.336,100.555,59.557,100.54z M31.16,157.457C31.111,158.094,30.979,156.855,31.16,157.457
					C31.156,157.536,31.144,157.395,31.16,157.457z M63.751,101.589c0.017-0.013,0.048,0.009,0.079,0.013
					C63.754,101.65,63.613,101.65,63.751,101.589z M60.946,95.599c-0.068,0.009-0.149,0.022-0.22,0.031
					C60.791,95.58,60.867,95.571,60.946,95.599z M60.699,95.643c-0.044,0,0.013-0.013,0.027-0.013
					C60.712,95.635,60.699,95.635,60.699,95.643z M60.389,95.727v0.01C60.378,95.727,60.389,95.727,60.389,95.727z M60.389,95.727
					c0.075-0.097,0.19-0.08,0.287-0.084C60.605,95.748,60.509,95.762,60.389,95.727z M62.39,95.834c0,0,0.006,0,0.013,0
					C62.396,95.837,62.39,95.843,62.39,95.834z M62.39,95.837c-0.022,0.116-0.112,0.098-0.191,0.098
					C62.227,95.837,62.299,95.828,62.39,95.837z M39.296,160.143C39.155,160.041,39.384,160.227,39.296,160.143
					C39.238,160.104,39.363,160.203,39.296,160.143z M106.426,100.76C106.816,100.872,106.455,100.846,106.426,100.76
					C106.426,100.76,106.449,100.823,106.426,100.76z M96.73,103.141c-0.009-0.003-0.009-0.014-0.009-0.014
					c0.03,0.011,0.048,0.041,0.03,0.085C96.749,103.19,96.734,103.168,96.73,103.141C96.722,103.138,96.734,103.168,96.73,103.141z
					 M62.184,95.935c0.011,0,0.011,0,0.015,0c0,0.009-0.004,0.009-0.017,0.005C62.182,95.939,62.184,95.939,62.184,95.935z
					 M62.065,95.962c0.036-0.009,0.075-0.009,0.116-0.022C62.128,96.023,62.087,96.027,62.065,95.962
					C62.102,95.953,62.07,95.971,62.065,95.962z M119.252,115.365L119.252,115.365l0.009,0.004L119.252,115.365z M69.432,155.838
					C69.241,155.678,69.567,155.718,69.432,155.838C69.409,155.824,69.476,155.797,69.432,155.838z M99.27,214.161
					c-0.013,0.013-0.022,0.013-0.04,0.013c0.005-0.029,0.018-0.049,0.044-0.034L99.27,214.161z M99.229,214.174
					C99.229,214.174,99.221,214.174,99.229,214.174L99.229,214.174z M49.081,111.396c0.032-0.008,0.614-0.071,0.414,0.15
					C49.268,111.666,49.135,111.613,49.081,111.396C49.151,111.389,49.09,111.525,49.081,111.396z M45.42,106.291
					c-0.163-0.109-0.125-0.226,0.105-0.346C45.724,106.017,45.688,106.137,45.42,106.291
					C45.343,106.281,45.552,106.252,45.42,106.291z"/>
			</g>
			<ellipse clip-path="url(#SVGID_2_)" fill="#232E38" cx="77.502" cy="115" rx="15" ry="4.5"/>
		</g>
		<g>
			<path fill="#F77B55" d="M77.502,40c-15.221,0-27.57,12.353-27.57,27.567c0,6.348,2.311,12.034,5.712,16.803
				C77.502,115,77.502,115,77.502,115s0,0,21.86-30.633c3.399-4.77,5.706-10.471,5.706-16.8C105.068,52.353,92.733,40,77.502,40z"/>
			<path fill="#FFFFFF" d="M98.03,67.567c0,11.353-9.18,20.53-20.528,20.53c-11.329,0-20.532-9.178-20.532-20.53
				c0-11.329,9.203-20.528,20.532-20.528C88.851,47.039,98.03,56.238,98.03,67.567z"/>
			<g>
				<g>
					<g>
						<g>
							<polygon fill="#353F49" points="77.502,51.145 74.6,67.569 77.502,83.992 80.399,67.569 							"/>
							<polygon fill="#353F49" points="61.076,67.569 77.502,70.468 93.924,67.569 77.502,64.67 							"/>
						</g>
					</g>
					<g>
						<g>
							<polygon fill="#353F49" points="69.291,59.355 76.052,69.018 85.713,75.779 78.951,66.121 							"/>
							<polygon fill="#353F49" points="69.29,75.781 78.951,69.016 85.711,59.357 76.055,66.119 							"/>
						</g>
					</g>
				</g>
			</g>
		</g>
		<path fill="#FFFFFF" d="M133.192,79.76c-0.304,0-0.594,0.051-0.866,0.146c0.079-0.407,0.122-0.824,0.122-1.252
			c0-3.566-2.888-6.451-6.452-6.451c-3.568,0-6.458,2.887-6.458,6.451c0,0.05,0.005,0.094,0.005,0.143
			c-0.409-0.18-0.859-0.283-1.336-0.283c-1.824,0-3.3,1.477-3.3,3.298s1.477,3.3,3.3,3.3l14.985-0.001
			c1.477,0,2.676-1.198,2.676-2.675C135.868,80.958,134.669,79.76,133.192,79.76z"/>
		<path fill="#FFFFFF" d="M49.018,62.903c-0.005,0-0.009,0-0.009,0c0-0.099,0.009-0.197,0.009-0.298
			c0-5.75-4.666-10.414-10.418-10.414c-4.7,0-8.675,3.119-9.966,7.398c-0.786-0.369-1.661-0.578-2.586-0.578
			c-3.353,0-6.071,2.718-6.071,6.07c0,0.773,0.146,1.51,0.408,2.189c-0.067-0.004-0.132-0.01-0.199-0.01
			c-2.149,0-3.892,1.742-3.892,3.891c0,2.149,1.742,3.894,3.892,3.894h28.832c3.351,0,6.067-2.718,6.067-6.071
			S52.368,62.903,49.018,62.903z"/>
	</g>
</g>
</svg>
